<svg width="223" height="192" viewBox="0 0 223 192" fill="none" xmlns="http://www.w3.org/2000/svg">
<path d="M73.0867 0.941831C81.049 0.768736 89.098 2.58623 97.2334 6.39432C105.369 10.2024 112.725 16.0011 119.303 23.7903C125.881 31.4065 131.247 41.0133 135.401 52.6106C139.555 64.208 141.719 77.7959 141.892 93.3745C142.065 103.76 141.286 113.194 139.555 121.675C137.824 130.157 135.487 137.773 132.545 144.524C129.602 151.102 126.227 156.987 122.419 162.18C118.784 167.199 115.062 171.527 111.254 175.162C107.446 178.624 103.811 181.393 100.349 183.47C96.8872 185.547 93.9446 186.932 91.5213 187.625C88.4056 188.663 84.684 189.615 80.3567 190.481C76.0293 191.173 71.5288 191.606 66.8553 191.779C62.1817 192.125 57.5081 191.865 52.8346 191C48.3341 190.308 44.3529 188.923 40.891 186.846C37.4291 184.769 33.3614 181.826 28.6878 178.018C24.1874 174.037 19.86 168.671 15.7057 161.92C11.5515 154.996 8.00302 146.342 5.0604 135.956C2.11779 125.57 0.646484 112.848 0.646484 97.7884C0.646484 82.7291 2.37743 69.2277 5.83933 57.2842C9.47432 45.3407 14.4075 35.2146 20.6389 26.9061C27.0434 18.5975 34.6596 12.2795 43.4875 7.95217C52.4884 3.45171 62.3548 1.11493 73.0867 0.941831ZM36.4771 97.5288C36.304 107.741 36.9099 116.656 38.2946 124.272C39.6794 131.888 41.3238 138.293 43.2278 143.485C45.1319 148.678 47.0359 152.833 48.9399 155.948C51.0171 158.891 52.5749 160.968 53.6135 162.18C54.6521 163.738 56.5561 164.776 59.3256 165.295C62.0952 165.815 65.0378 166.074 68.1535 166.074C71.2692 165.901 74.2983 165.468 77.241 164.776C80.1836 163.911 82.4338 162.786 83.9917 161.401C84.8571 160.535 86.0688 158.372 87.6266 154.91C89.3576 151.448 91.002 146.947 92.5599 141.408C94.2908 135.869 95.8487 129.465 97.2334 122.195C98.6182 114.752 99.5702 106.789 100.089 98.3077C100.609 88.7875 100.609 80.0462 100.089 72.0838C99.5702 63.9484 98.7913 56.8515 97.7527 50.7931C96.7141 44.7348 95.5025 39.7151 94.1177 35.7339C92.7329 31.7527 91.2616 29.0697 89.7038 27.685C87.4535 25.6078 84.684 24.1365 81.3952 23.2711C78.2795 22.4056 75.0773 22.0594 71.7885 22.2325C68.6728 22.4056 65.6436 23.0114 62.701 24.05C59.9315 25.0886 57.7678 26.4733 56.2099 28.2043C53.0942 31.6662 50.3247 35.3012 47.9014 39.1092C45.4781 42.9173 43.4875 47.5043 41.9296 52.8703C40.3718 58.2362 39.0735 64.5542 38.035 71.8242C37.1695 78.9211 36.6502 87.4893 36.4771 97.5288Z" fill="white" fill-opacity="0.1"/>
<path d="M154.874 30.0218C160.932 28.1177 165.866 26.5599 169.674 25.3482C173.482 23.9634 176.597 22.8383 179.021 21.9729C181.79 20.9343 183.867 19.9823 185.252 19.1168L191.484 16.0011C193.907 14.7894 197.023 13.2316 200.831 11.3275C204.639 9.25038 209.572 6.65396 215.63 3.53825C214.246 10.1159 213.207 16.3473 212.515 22.2325C211.995 27.9446 211.563 33.0509 211.216 37.5514C210.697 42.7442 210.437 47.5043 210.437 51.8317C210.264 55.4667 210.005 60.3134 209.659 66.3717C209.485 72.43 209.226 79.0076 208.88 86.1045C208.533 93.2014 208.187 100.471 207.841 107.914C207.495 115.358 207.235 122.368 207.062 128.945C207.062 135.35 207.149 140.889 207.322 145.563C207.668 150.236 208.274 153.438 209.139 155.169C210.005 157.246 211.13 159.237 212.515 161.141C213.726 162.872 215.111 164.863 216.669 167.113C218.4 169.19 220.477 171.267 222.9 173.344C218.919 174.21 215.198 174.989 211.736 175.681C208.274 176.2 205.245 176.633 202.648 176.979C199.532 177.499 196.763 177.931 194.34 178.277C191.743 178.451 188.195 178.883 183.694 179.576C179.886 180.095 175.04 180.787 169.154 181.653C163.269 182.345 155.999 183.124 147.344 183.99C151.845 181.22 155.393 178.537 157.99 175.941C160.759 173.344 162.836 171.094 164.221 169.19C165.779 166.94 166.731 164.776 167.077 162.699C167.25 161.314 167.51 157.593 167.856 151.534C168.375 145.303 168.808 138.033 169.154 129.724C169.674 121.243 170.106 112.242 170.453 102.722C170.972 93.0283 171.318 84.0274 171.491 75.7188C171.664 67.4103 171.751 60.3134 171.751 54.4281C171.751 48.5429 171.491 44.9945 170.972 43.7828C170.279 42.5711 169.241 41.1864 167.856 39.6285C166.644 38.2438 165 36.7725 162.923 35.2146C161.019 33.6568 158.336 31.9258 154.874 30.0218Z" fill="white" fill-opacity="0.1"/>
</svg>
