<svg width="288" height="193" viewBox="0 0 288 193" fill="none" xmlns="http://www.w3.org/2000/svg">
<path d="M73.0935 1.94189C81.0559 1.76879 89.1048 3.58629 97.2402 7.39438C105.376 11.2025 112.732 17.0011 119.31 24.7904C125.887 32.4066 131.253 42.0133 135.408 53.6107C139.562 65.2081 141.726 78.796 141.899 94.3745C142.072 104.76 141.293 114.194 139.562 122.676C137.831 131.157 135.494 138.773 132.552 145.524C129.609 152.102 126.234 157.987 122.426 163.18C118.791 168.199 115.069 172.527 111.261 176.162C107.453 179.624 103.818 182.393 100.356 184.47C96.8941 186.548 93.9514 187.932 91.5281 188.625C88.4124 189.663 84.6909 190.615 80.3635 191.481C76.0361 192.173 71.5357 192.606 66.8621 192.779C62.1885 193.125 57.515 192.866 52.8414 192C48.3409 191.308 44.3598 189.923 40.8979 187.846C37.436 185.769 33.3682 182.826 28.6947 179.018C24.1942 175.037 19.8668 169.671 15.7126 162.92C11.5583 155.996 8.00985 147.342 5.06724 136.956C2.12463 126.57 0.65332 113.848 0.65332 98.7885C0.65332 83.7292 2.38427 70.2278 5.84617 58.2843C9.48116 46.3407 14.4144 36.2147 20.6458 27.9061C27.0503 19.5976 34.6665 13.2796 43.4943 8.95223C52.4952 4.45176 62.3616 2.11498 73.0935 1.94189ZM36.484 98.5288C36.3109 108.741 36.9167 117.656 38.3014 125.272C39.6862 132.888 41.3306 139.293 43.2347 144.486C45.1387 149.678 47.0427 153.833 48.9468 156.948C51.0239 159.891 52.5818 161.968 53.6203 163.18C54.6589 164.738 56.563 165.776 59.3325 166.295C62.102 166.815 65.0446 167.074 68.1603 167.074C71.276 166.901 74.3052 166.469 77.2478 165.776C80.1904 164.911 82.4406 163.786 83.9985 162.401C84.864 161.535 86.0756 159.372 87.6335 155.91C89.3644 152.448 91.0088 147.947 92.5667 142.408C94.2976 136.869 95.8555 130.465 97.2402 123.195C98.625 115.752 99.577 107.789 100.096 99.3077C100.616 89.7875 100.616 81.0462 100.096 73.0839C99.577 64.9484 98.7981 57.8515 97.7595 51.7932C96.721 45.7349 95.5093 40.7151 94.1245 36.734C92.7398 32.7528 91.2685 30.0698 89.7106 28.685C87.4604 26.6079 84.6909 25.1366 81.4021 24.2711C78.2864 23.4057 75.0841 23.0595 71.7953 23.2326C68.6796 23.4057 65.6504 24.0115 62.7078 25.0501C59.9383 26.0886 57.7746 27.4734 56.2168 29.2043C53.1011 32.6662 50.3315 36.3012 47.9082 40.1093C45.4849 43.9174 43.4943 48.5044 41.9364 53.8703C40.3786 59.2363 39.0804 65.5542 38.0418 72.8242C37.1763 79.9211 36.6571 88.4893 36.484 98.5288Z" fill="white" fill-opacity="0.1"/>
<path d="M157.997 8.95223C161.285 11.3756 164.574 13.1931 167.863 14.4047C171.325 15.4433 174.441 16.1357 177.21 16.4819C180.326 17.0011 183.441 17.0877 186.557 16.7415C189.5 16.3953 192.529 15.3567 195.645 13.6258C198.76 11.8948 202.395 10.0773 206.55 8.1733C210.704 6.26926 215.551 4.62486 221.09 3.2401C226.802 1.68225 233.639 0.90332 241.601 0.90332C245.063 0.90332 248.698 1.5957 252.506 2.98046C256.488 4.36522 260.296 6.18271 263.931 8.43295C267.566 10.5101 270.854 12.8469 273.797 15.4433C276.913 18.0397 279.249 20.6361 280.807 23.2326C282.538 25.829 283.75 30.0698 284.442 35.955C285.135 41.6672 285.394 47.8986 285.221 54.6493C285.048 61.4 284.442 68.0641 283.404 74.6417C282.538 81.2193 281.24 86.5853 279.509 90.7395C277.432 94.3745 273.451 99.0481 267.566 104.76C262.546 109.607 255.016 115.838 244.977 123.454C234.937 131.071 221.436 140.158 204.473 150.717C214.512 150.544 222.907 150.284 229.658 149.938C236.582 149.419 242.207 148.899 246.535 148.38C251.554 147.688 255.535 146.995 258.478 146.303C261.075 145.264 263.844 143.793 266.787 141.889C269.21 140.158 271.806 137.908 274.576 135.138C277.519 132.369 280.375 128.734 283.144 124.233C283.663 133.581 284.183 140.937 284.702 146.303C285.048 149.419 285.308 152.102 285.481 154.352C285.654 156.429 285.827 158.852 286 161.622C286.173 164.045 286.26 166.815 286.26 169.93C286.433 173.046 286.693 176.335 287.039 179.797C278.384 177.547 270.508 175.816 263.411 174.604C256.314 173.219 250.256 172.267 245.236 171.748C239.351 171.056 234.072 170.709 229.398 170.709C224.552 170.882 219.186 171.315 213.3 172.008C208.107 172.7 201.876 173.739 194.606 175.123C187.509 176.335 179.46 178.152 170.459 180.576C169.767 178.672 169.161 176.768 168.642 174.864C168.123 172.787 167.69 170.796 167.344 168.892C166.824 166.815 166.392 164.738 166.045 162.66C165.699 160.583 165.353 158.593 165.007 156.689C164.661 154.958 164.401 153.14 164.228 151.236C164.055 149.332 163.882 147.515 163.709 145.784C177.556 136.956 188.807 128.994 197.462 121.897C206.117 114.627 212.954 108.482 217.974 103.462C223.686 97.5768 228.013 92.2109 230.956 87.3642C233.899 81.479 236.322 74.9879 238.226 67.891C240.13 60.7941 240.736 54.2165 240.044 48.1582C239.524 42.0999 237.447 37.1667 233.812 33.3586C230.177 29.3774 224.378 27.6465 216.416 28.1658C211.223 28.5119 206.29 30.3294 201.616 33.6182C197.116 36.9071 192.962 40.8882 189.154 45.5618C185.346 50.2354 181.97 55.2551 179.028 60.621C176.085 65.8139 173.575 70.7471 171.498 75.4207C169.594 80.0942 168.036 83.9888 166.824 87.1046C165.786 90.2203 165.267 91.8647 165.267 92.0378C165.093 92.3839 164.834 91.0857 164.488 88.1431C164.314 85.2005 164.055 81.5655 163.709 77.2382C163.536 72.7377 163.276 68.0641 162.93 63.2175C162.584 58.3708 162.237 54.3031 161.891 51.0143C161.718 48.4179 161.458 45.0425 161.112 40.8882C160.593 34.1375 159.554 23.4922 157.997 8.95223Z" fill="white" fill-opacity="0.1"/>
</svg>
