<svg width="285" height="192" viewBox="0 0 285 192" fill="none" xmlns="http://www.w3.org/2000/svg">
<path d="M73.0457 0.941953C81.008 0.768858 89.0569 2.58635 97.1924 6.39444C105.328 10.2025 112.684 16.0012 119.262 23.7905C125.84 31.4066 131.206 41.0134 135.36 52.6108C139.514 64.2081 141.678 77.7961 141.851 93.3746C142.024 103.76 141.245 113.194 139.514 121.676C137.783 130.157 135.446 137.773 132.504 144.524C129.561 151.102 126.186 156.987 122.378 162.18C118.743 167.2 115.021 171.527 111.213 175.162C107.405 178.624 103.77 181.393 100.308 183.47C96.8462 185.548 93.9036 186.932 91.4803 187.625C88.3646 188.663 84.643 189.615 80.3156 190.481C75.9883 191.173 71.4878 191.606 66.8142 191.779C62.1407 192.125 57.4671 191.866 52.7936 191C48.2931 190.308 44.3119 188.923 40.85 186.846C37.3881 184.769 33.3204 181.826 28.6468 178.018C24.1464 174.037 19.819 168.671 15.6647 161.92C11.5104 154.996 7.962 146.342 5.01939 135.956C2.07677 125.57 0.605469 112.848 0.605469 97.7885C0.605469 82.7293 2.33642 69.2279 5.79831 57.2843C9.43331 45.3408 14.3665 35.2147 20.5979 26.9062C27.0024 18.5976 34.6186 12.2797 43.4464 7.95229C52.4474 3.45183 62.3138 1.11505 73.0457 0.941953ZM36.4361 97.5289C36.263 107.741 36.8688 116.656 38.2536 124.272C39.6384 131.888 41.2828 138.293 43.1868 143.486C45.0908 148.678 46.9949 152.833 48.8989 155.948C50.9761 158.891 52.5339 160.968 53.5725 162.18C54.6111 163.738 56.5151 164.776 59.2846 165.296C62.0541 165.815 64.9967 166.074 68.1125 166.074C71.2282 165.901 74.2573 165.469 77.1999 164.776C80.1425 163.911 82.3928 162.786 83.9506 161.401C84.8161 160.535 86.0278 158.372 87.5856 154.91C89.3166 151.448 90.961 146.947 92.5188 141.408C94.2498 135.869 95.8076 129.465 97.1924 122.195C98.5772 114.752 99.5292 106.789 100.048 98.3078C100.568 88.7876 100.568 80.0463 100.048 72.0839C99.5292 63.9485 98.7502 56.8516 97.7117 50.7933C96.6731 44.735 95.4614 39.7152 94.0767 35.734C92.6919 31.7528 91.2206 29.0699 89.6628 27.6851C87.4125 25.608 84.643 24.1367 81.3542 23.2712C78.2385 22.4057 75.0363 22.0595 71.7475 22.2326C68.6317 22.4057 65.6026 23.0115 62.66 24.0501C59.8905 25.0887 57.7268 26.4734 56.1689 28.2044C53.0532 31.6663 50.2837 35.3013 47.8604 39.1094C45.437 42.9175 43.4464 47.5045 41.8886 52.8704C40.3307 58.2363 39.0325 64.5543 37.994 71.8243C37.1285 78.9212 36.6092 87.4894 36.4361 97.5289Z" fill="white" fill-opacity="0.1"/>
<path d="M155.352 1.2016C158.295 3.27873 161.324 4.83659 164.44 5.87516C167.555 6.91373 170.325 7.69265 172.748 8.21194C175.691 8.90432 178.547 9.25051 181.316 9.25051C184.778 9.25051 187.894 8.81777 190.664 7.95229C193.606 7.08682 196.808 6.22135 200.27 5.35587C203.732 4.4904 207.713 3.79802 212.214 3.27873C216.714 2.58635 222.34 2.49981 229.091 3.01909C235.841 3.53838 241.9 5.09623 247.266 7.69265C252.632 10.116 257.132 13.2317 260.767 17.0398C264.575 20.6748 267.518 24.7425 269.595 29.243C271.672 33.7434 272.711 38.3304 272.711 43.004C272.364 50.1009 271.239 56.765 269.335 62.9965C267.604 68.3624 264.921 73.6418 261.286 78.8346C257.651 83.8544 252.285 87.4028 245.188 89.48C253.843 90.6916 260.594 92.9419 265.441 96.2307C270.46 99.5195 274.355 102.895 277.124 106.357C280.24 110.511 282.404 115.011 283.616 119.858C284.654 126.263 284.568 132.84 283.356 139.591C282.144 146.169 279.894 152.4 276.605 158.285C273.489 163.997 269.162 169.104 263.623 173.604C258.257 177.931 251.766 181.134 244.15 183.211C238.957 184.596 232.985 184.942 226.235 184.249C219.657 183.384 213.252 182.172 207.021 180.614C200.79 179.057 195.164 177.499 190.144 175.941C185.125 174.383 181.663 173.691 179.759 173.864C178.201 174.037 176.383 174.643 174.306 175.681C172.402 176.547 170.152 177.931 167.555 179.835C165.132 181.566 162.19 184.076 158.728 187.365C159.593 179.576 160.199 173.344 160.545 168.671C161.064 163.997 161.497 160.276 161.843 157.506C162.19 154.391 162.363 152.054 162.363 150.496V144.784C162.363 142.707 162.276 140.024 162.103 136.735C161.93 133.446 161.757 129.292 161.584 124.272C170.412 135.004 178.72 143.053 186.509 148.419C194.299 153.785 201.136 157.679 207.021 160.103C213.945 162.872 220.263 164.17 225.975 163.997C230.822 163.651 234.716 162.093 237.659 159.324C240.601 156.381 242.679 152.919 243.89 148.938C245.102 144.957 245.535 140.716 245.188 136.216C244.842 131.542 243.717 127.215 241.813 123.233C240.082 119.079 237.659 115.531 234.543 112.588C231.427 109.472 227.792 107.568 223.638 106.876C218.618 106.011 213.858 105.924 209.358 106.616C205.377 107.136 201.222 108.347 196.895 110.251C192.568 111.982 188.933 115.011 185.99 119.339C185.644 116.396 185.384 113.886 185.211 111.809C185.211 109.732 185.125 108.001 184.951 106.616C184.778 105.059 184.692 103.933 184.692 103.241C184.692 102.376 184.605 101.077 184.432 99.3464C184.259 97.9616 184.086 96.1441 183.913 93.8939C183.913 91.4706 183.74 88.4414 183.394 84.8064C186.509 85.6719 189.452 86.3643 192.221 86.8835C194.991 87.2297 197.414 87.4894 199.491 87.6625C201.915 87.8356 204.165 87.8356 206.242 87.6625C208.839 87.4894 211.954 86.5374 215.589 84.8064C219.397 82.9024 222.946 80.3925 226.235 77.2768C229.523 74.1611 232.12 70.4395 234.024 66.1122C236.101 61.7848 236.793 57.0247 236.101 51.8318C234.543 41.2731 230.995 33.7434 225.456 29.243C220.09 24.5694 214.551 22.4057 208.839 22.7519C205.03 23.2712 200.53 25.0887 195.337 28.2044C190.837 30.8008 185.471 34.782 179.239 40.1479C173.181 45.3408 166.257 52.6973 158.468 62.2175C158.814 57.544 158.987 53.3897 158.987 49.7547C158.987 45.9466 158.987 42.8309 158.987 40.4076C158.987 37.465 158.901 34.8685 158.728 32.6183L157.949 24.829C157.602 22.2326 157.256 18.9438 156.91 14.9626C156.564 10.9815 156.045 6.39444 155.352 1.2016Z" fill="white" fill-opacity="0.1"/>
</svg>
