<svg width="289" height="192" viewBox="0 0 289 192" fill="none" xmlns="http://www.w3.org/2000/svg">
<path d="M72.6365 0.941953C80.5988 0.768858 88.6478 2.58635 96.7832 6.39444C104.919 10.2025 112.275 16.0012 118.853 23.7905C125.43 31.4066 130.796 41.0134 134.951 52.6108C139.105 64.2081 141.269 77.7961 141.442 93.3746C141.615 103.76 140.836 113.194 139.105 121.676C137.374 130.157 135.037 137.773 132.095 144.524C129.152 151.102 125.777 156.987 121.969 162.18C118.334 167.2 114.612 171.527 110.804 175.162C106.996 178.624 103.361 181.393 99.8989 183.47C96.437 185.548 93.4944 186.932 91.0711 187.625C87.9554 188.663 84.2338 189.615 79.9065 190.481C75.5791 191.173 71.0786 191.606 66.4051 191.779C61.7315 192.125 57.0579 191.866 52.3844 191C47.8839 190.308 43.9027 188.923 40.4408 186.846C36.9789 184.769 32.9112 181.826 28.2377 178.018C23.7372 174.037 19.4098 168.671 15.2555 161.92C11.1013 154.996 7.55282 146.342 4.61021 135.956C1.6676 125.57 0.196289 112.848 0.196289 97.7885C0.196289 82.7293 1.92724 69.2279 5.38913 57.2843C9.02413 45.3408 13.9573 35.2147 20.1887 26.9062C26.5933 18.5976 34.2094 12.2797 43.0373 7.95229C52.0382 3.45183 61.9046 1.11505 72.6365 0.941953ZM36.0269 97.5289C35.8538 107.741 36.4597 116.656 37.8444 124.272C39.2292 131.888 40.8736 138.293 42.7776 143.486C44.6817 148.678 46.5857 152.833 48.4898 155.948C50.5669 158.891 52.1247 160.968 53.1633 162.18C54.2019 163.738 56.1059 164.776 58.8754 165.296C61.645 165.815 64.5876 166.074 67.7033 166.074C70.819 165.901 73.8481 165.469 76.7908 164.776C79.7334 163.911 81.9836 162.786 83.5415 161.401C84.4069 160.535 85.6186 158.372 87.1765 154.91C88.9074 151.448 90.5518 146.947 92.1097 141.408C93.8406 135.869 95.3985 129.465 96.7832 122.195C98.168 114.752 99.12 106.789 99.6393 98.3078C100.159 88.7876 100.159 80.0463 99.6393 72.0839C99.12 63.9485 98.3411 56.8516 97.3025 50.7933C96.2639 44.735 95.0523 39.7152 93.6675 35.734C92.2828 31.7528 90.8114 29.0699 89.2536 27.6851C87.0034 25.608 84.2338 24.1367 80.945 23.2712C77.8293 22.4057 74.6271 22.0595 71.3383 22.2326C68.2226 22.4057 65.1934 23.0115 62.2508 24.0501C59.4813 25.0887 57.3176 26.4734 55.7597 28.2044C52.644 31.6663 49.8745 35.3013 47.4512 39.1094C45.0279 42.9175 43.0373 47.5045 41.4794 52.8704C39.9216 58.2363 38.6233 64.5543 37.5848 71.8243C36.7193 78.9212 36.2 87.4894 36.0269 97.5289Z" fill="white" fill-opacity="0.1"/>
<path d="M192.072 3.01909C197.784 3.36528 202.458 3.62492 206.093 3.79802C209.901 3.97111 212.93 4.05766 215.18 4.05766C217.777 4.23075 219.767 4.23075 221.152 4.05766H227.903C230.499 4.05766 234.134 4.14421 238.808 4.3173C243.654 4.3173 249.972 4.40385 257.761 4.57694C256.896 5.78861 256.204 7.25992 255.684 8.99086C255.165 10.7218 254.732 12.4528 254.386 14.1837C253.867 16.0878 253.521 18.1649 253.348 20.4151C253.174 23.1846 252.828 27.512 252.309 33.3972C251.963 38.417 251.443 45.4273 250.751 54.4283C250.232 63.2561 249.539 74.7669 248.674 88.9607C253.694 88.9607 258.021 88.5279 261.656 87.6625C265.291 86.6239 268.32 85.4122 270.744 84.0275C273.513 82.6427 275.763 80.9983 277.494 79.0943C278.36 78.0557 279.312 76.9306 280.35 75.7189C281.216 74.6804 282.341 73.5552 283.726 72.3436C285.11 71.1319 286.582 69.8337 288.14 68.4489C287.793 73.1225 287.534 77.1902 287.361 80.6521C287.188 83.9409 287.014 86.7105 286.841 88.9607C286.668 91.5571 286.495 93.6342 286.322 95.1921C286.322 97.0961 286.149 99.606 285.803 102.722C285.457 105.491 285.11 109.213 284.764 113.886C284.418 118.387 284.072 124.099 283.726 131.023C281.995 127.561 280.35 124.878 278.792 122.974C277.408 120.897 276.196 119.339 275.157 118.3C273.773 117.089 272.561 116.223 271.522 115.704C270.311 115.358 268.666 115.011 266.589 114.665C264.685 114.319 262.262 114.146 259.319 114.146C256.55 113.973 252.915 113.8 248.414 113.627C248.414 123.839 248.587 132.061 248.934 138.293C249.453 144.524 249.972 149.371 250.491 152.833C251.184 156.987 251.963 159.93 252.828 161.661C253.867 163.218 255.338 165.036 257.242 167.113C258.973 169.017 261.31 171.267 264.252 173.864C267.195 176.46 271.003 179.403 275.677 182.692C271.696 183.557 267.887 184.163 264.252 184.509C260.791 184.682 257.588 184.942 254.646 185.288C251.357 185.634 248.241 185.807 245.299 185.807C242.183 185.807 238.375 185.98 233.874 186.327C229.893 186.673 224.96 187.019 219.075 187.365C213.189 187.711 206.093 188.144 197.784 188.663C200.727 185.721 203.063 183.038 204.794 180.614C206.698 178.018 208.17 175.768 209.208 173.864C210.42 171.787 211.285 169.969 211.805 168.411C212.151 166.507 212.67 163.305 213.363 158.804C213.882 154.996 214.488 149.717 215.18 142.966C215.872 136.216 216.651 127.301 217.517 116.223L146.894 117.002L148.192 99.606C156.674 87.4894 163.425 77.4499 168.444 69.4875C173.637 61.3521 177.619 54.7745 180.388 49.7547C183.504 44.0426 185.754 39.5421 187.139 36.2533C188.004 33.1376 188.783 29.8488 189.476 26.3869C190.168 23.4443 190.774 19.9824 191.293 16.0012C191.812 11.8469 192.072 7.51956 192.072 3.01909ZM220.633 91.5571C220.979 86.8835 221.238 82.6427 221.412 78.8346C221.758 74.8535 222.017 71.3916 222.19 68.4489C222.364 65.1601 222.45 62.0444 222.45 59.1018V49.4951C222.45 46.3793 222.45 42.7444 222.45 38.5901C222.623 34.2627 222.796 29.4161 222.969 24.0501L184.802 92.0764L220.633 91.5571Z" fill="white" fill-opacity="0.1"/>
</svg>
