<svg width="276" height="192" viewBox="0 0 276 192" fill="none" xmlns="http://www.w3.org/2000/svg">
<path d="M72.863 0.941953C80.8254 0.768858 88.8743 2.58635 97.0098 6.39444C105.145 10.2025 112.502 16.0012 119.079 23.7905C125.657 31.4066 131.023 41.0134 135.177 52.6108C139.331 64.2081 141.495 77.7961 141.668 93.3746C141.841 103.76 141.062 113.194 139.331 121.676C137.601 130.157 135.264 137.773 132.321 144.524C129.379 151.102 126.003 156.987 122.195 162.18C118.56 167.2 114.839 171.527 111.03 175.162C107.222 178.624 103.587 181.393 100.125 183.47C96.6636 185.548 93.721 186.932 91.2976 187.625C88.1819 188.663 84.4604 189.615 80.133 190.481C75.8057 191.173 71.3052 191.606 66.6316 191.779C61.9581 192.125 57.2845 191.866 52.6109 191C48.1105 190.308 44.1293 188.923 40.6674 186.846C37.2055 184.769 33.1378 181.826 28.4642 178.018C23.9638 174.037 19.6364 168.671 15.4821 161.92C11.3278 154.996 7.77938 146.342 4.83677 135.956C1.89416 125.57 0.422852 112.848 0.422852 97.7885C0.422852 82.7293 2.1538 69.2279 5.6157 57.2843C9.25069 45.3408 14.1839 35.2147 20.4153 26.9062C26.8198 18.5976 34.436 12.2797 43.2638 7.95229C52.2648 3.45183 62.1312 1.11505 72.863 0.941953ZM36.2535 97.5289C36.0804 107.741 36.6862 116.656 38.071 124.272C39.4557 131.888 41.1001 138.293 43.0042 143.486C44.9082 148.678 46.8123 152.833 48.7163 155.948C50.7935 158.891 52.3513 160.968 53.3899 162.18C54.4284 163.738 56.3325 164.776 59.102 165.296C61.8715 165.815 64.8141 166.074 67.9298 166.074C71.0455 165.901 74.0747 165.469 77.0173 164.776C79.9599 163.911 82.2102 162.786 83.768 161.401C84.6335 160.535 85.8452 158.372 87.403 154.91C89.134 151.448 90.7784 146.947 92.3362 141.408C94.0672 135.869 95.625 129.465 97.0098 122.195C98.3945 114.752 99.3466 106.789 99.8658 98.3078C100.385 88.7876 100.385 80.0463 99.8658 72.0839C99.3466 63.9485 98.5676 56.8516 97.5291 50.7933C96.4905 44.735 95.2788 39.7152 93.8941 35.734C92.5093 31.7528 91.038 29.0699 89.4801 27.6851C87.2299 25.608 84.4604 24.1367 81.1716 23.2712C78.0559 22.4057 74.8536 22.0595 71.5648 22.2326C68.4491 22.4057 65.42 23.0115 62.4774 24.0501C59.7078 25.0887 57.5442 26.4734 55.9863 28.2044C52.8706 31.6663 50.1011 35.3013 47.6777 39.1094C45.2544 42.9175 43.2638 47.5045 41.706 52.8704C40.1481 58.2363 38.8499 64.5543 37.8113 71.8243C36.9459 78.9212 36.4266 87.4894 36.2535 97.5289Z" fill="white" fill-opacity="0.1"/>
<path d="M162.44 4.57694C170.748 6.1348 178.018 7.25991 184.25 7.95229C190.481 8.64467 195.76 9.16396 200.088 9.51015C205.108 9.85634 209.435 9.94288 213.07 9.76979C216.705 9.76979 221.292 9.51015 226.831 8.99086C231.504 8.64467 237.39 8.21194 244.487 7.69265C251.757 7.00027 260.325 6.22135 270.191 5.35587C269.672 10.0294 269.153 14.2703 268.633 18.0783C268.287 21.7133 267.941 24.829 267.595 27.4255C267.249 30.5412 266.989 33.3107 266.816 35.734C266.643 38.3304 266.383 41.2731 266.037 44.5619C265.691 47.5045 265.345 51.1395 264.998 55.4668C264.825 59.7942 264.652 64.814 264.479 70.5261C257.901 59.6211 251.93 51.226 246.564 45.3408C241.198 39.2825 236.524 34.782 232.543 31.8394C228.043 28.5506 223.975 26.56 220.34 25.8676H209.695C206.579 25.8676 203.203 25.9542 199.568 26.1273C195.933 26.3003 192.645 26.6465 189.702 27.1658L190.741 88.4414C194.203 84.114 198.011 80.9118 202.165 78.8346C206.319 76.7575 210.387 75.2862 214.368 74.4207C218.869 73.5552 223.456 73.2091 228.129 73.3821C240.246 74.4207 249.593 76.4979 256.17 79.6136C262.921 82.7293 267.768 87.3163 270.71 93.3746C272.095 96.4903 273.22 101.25 274.086 107.655C275.124 113.886 275.471 120.637 275.124 127.907C274.778 135.177 273.653 142.36 271.749 149.457C269.845 156.381 266.816 162.007 262.662 166.334C258.507 170.488 254.44 173.95 250.458 176.72C246.477 179.316 242.496 181.48 238.515 183.211C234.534 184.769 230.379 185.894 226.052 186.586C221.725 187.279 217.138 187.798 212.291 188.144C204.502 188.663 197.059 187.798 189.962 185.548C182.865 183.297 176.633 180.268 171.267 176.46C165.902 172.652 161.574 168.584 158.285 164.257C154.997 159.756 153.179 155.689 152.833 152.054C152.487 149.284 152.314 146.515 152.314 143.745C152.314 141.322 152.4 138.812 152.573 136.216C152.919 133.619 153.525 131.369 154.391 129.465L221.638 134.138C215.06 136.216 210.127 138.466 206.838 140.889C203.55 143.139 201.213 145.303 199.828 147.38C198.097 149.804 197.405 152.227 197.751 154.65C198.963 160.882 201.126 165.988 204.242 169.969C207.358 173.777 210.906 175.335 214.887 174.643C216.965 174.296 219.301 172.912 221.898 170.488C224.667 167.892 227.264 164.69 229.687 160.882C232.283 157.074 234.534 152.833 236.438 148.159C238.515 143.312 239.813 138.466 240.332 133.619C240.852 128.773 241.198 123.666 241.371 118.3C241.717 112.934 241.544 108.001 240.852 103.501C240.159 99.0002 238.948 95.2786 237.217 92.336C235.486 89.2203 232.976 87.6625 229.687 87.6625C226.917 88.0087 223.802 89.1338 220.34 91.0378C217.397 92.7688 213.849 95.3652 209.695 98.8271C205.713 102.289 201.213 107.309 196.193 113.886C192.731 113.021 189.789 112.155 187.365 111.29C185.115 110.251 183.211 109.386 181.653 108.693C179.749 108.001 178.278 107.222 177.239 106.357C176.201 105.664 174.816 104.799 173.085 103.76C171.7 102.895 169.969 101.856 167.892 100.645C165.815 99.2598 163.305 97.6154 160.362 95.7114C161.055 88.9607 161.488 83.2486 161.661 78.575C161.834 73.9014 162.007 70.0933 162.18 67.1507V58.5825C162.007 56.1592 161.92 52.6108 161.92 47.9372C161.92 43.956 161.92 38.5035 161.92 31.5797C161.92 24.4829 162.093 15.4819 162.44 4.57694Z" fill="white" fill-opacity="0.1"/>
</svg>
