<svg width="288" height="193" viewBox="0 0 288 193" fill="none" xmlns="http://www.w3.org/2000/svg">
<path d="M73.0925 1.94183C81.0549 1.76873 89.1038 3.58623 97.2393 7.39432C105.375 11.2024 112.731 17.0011 119.309 24.7903C125.886 32.4065 131.252 42.0133 135.407 53.6106C139.561 65.208 141.725 78.7959 141.898 94.3745C142.071 104.76 141.292 114.194 139.561 122.675C137.83 131.157 135.493 138.773 132.551 145.524C129.608 152.102 126.233 157.987 122.425 163.18C118.79 168.199 115.068 172.527 111.26 176.162C107.452 179.624 103.817 182.393 100.355 184.47C96.8931 186.547 93.9505 187.932 91.5271 188.625C88.4114 189.663 84.6899 190.615 80.3625 191.481C76.0351 192.173 71.5347 192.606 66.8611 192.779C62.1876 193.125 57.514 192.865 52.8404 192C48.34 191.308 44.3588 189.923 40.8969 187.846C37.435 185.769 33.3673 182.826 28.6937 179.018C24.1932 175.037 19.8659 169.671 15.7116 162.92C11.5573 155.996 8.00887 147.342 5.06626 136.956C2.12365 126.57 0.652344 113.848 0.652344 98.7884C0.652344 83.7291 2.38329 70.2277 5.84519 58.2842C9.48018 46.3407 14.4134 36.2146 20.6448 27.9061C27.0493 19.5975 34.6655 13.2795 43.4933 8.95217C52.4943 4.4517 62.3607 2.11492 73.0925 1.94183ZM36.483 98.5288C36.3099 108.741 36.9157 117.656 38.3005 125.272C39.6852 132.888 41.3296 139.293 43.2337 144.485C45.1377 149.678 47.0418 153.833 48.9458 156.948C51.0229 159.891 52.5808 161.968 53.6194 163.18C54.6579 164.738 56.562 165.776 59.3315 166.295C62.101 166.815 65.0436 167.074 68.1593 167.074C71.275 166.901 74.3042 166.468 77.2468 165.776C80.1894 164.911 82.4397 163.786 83.9975 162.401C84.863 161.535 86.0747 159.372 87.6325 155.91C89.3635 152.448 91.0079 147.947 92.5657 142.408C94.2967 136.869 95.8545 130.465 97.2393 123.195C98.624 115.752 99.5761 107.789 100.095 99.3077C100.615 89.7875 100.615 81.0462 100.095 73.0838C99.5761 64.9484 98.7971 57.8515 97.7586 51.7931C96.72 45.7348 95.5083 40.7151 94.1236 36.7339C92.7388 32.7527 91.2675 30.0697 89.7096 28.685C87.4594 26.6078 84.6899 25.1365 81.4011 24.2711C78.2854 23.4056 75.0831 23.0594 71.7943 23.2325C68.6786 23.4056 65.6495 24.0114 62.7068 25.05C59.9373 26.0886 57.7736 27.4733 56.2158 29.2043C53.1001 32.6662 50.3306 36.3012 47.9072 40.1092C45.4839 43.9173 43.4933 48.5043 41.9355 53.8703C40.3776 59.2362 39.0794 65.5542 38.0408 72.8242C37.1754 79.9211 36.6561 88.4893 36.483 98.5288Z" fill="#613D80" fill-opacity="0.06"/>
<path d="M157.996 8.95217C161.284 11.3755 164.573 13.193 167.862 14.4047C171.324 15.4432 174.44 16.1356 177.209 16.4818C180.325 17.0011 183.441 17.0876 186.556 16.7414C189.499 16.3952 192.528 15.3567 195.644 13.6257C198.759 11.8948 202.394 10.0773 206.549 8.17324C210.703 6.2692 215.55 4.6248 221.089 3.24004C226.801 1.68219 233.638 0.903259 241.6 0.903259C245.062 0.903259 248.697 1.59564 252.505 2.9804C256.487 4.36516 260.295 6.18265 263.93 8.43289C267.565 10.51 270.853 12.8468 273.796 15.4432C276.912 18.0396 279.249 20.6361 280.806 23.2325C282.537 25.8289 283.749 30.0697 284.441 35.955C285.134 41.6671 285.393 47.8985 285.22 54.6492C285.047 61.3999 284.441 68.0641 283.403 74.6417C282.537 81.2193 281.239 86.5852 279.508 90.7395C277.431 94.3745 273.45 99.048 267.565 104.76C262.545 109.607 255.015 115.838 244.976 123.454C234.936 131.071 221.435 140.158 204.472 150.717C214.511 150.544 222.906 150.284 229.657 149.938C236.581 149.419 242.206 148.899 246.534 148.38C251.553 147.688 255.534 146.995 258.477 146.303C261.074 145.264 263.843 143.793 266.786 141.889C269.209 140.158 271.805 137.908 274.575 135.138C277.518 132.369 280.374 128.734 283.143 124.233C283.662 133.58 284.182 140.937 284.701 146.303C285.047 149.419 285.307 152.102 285.48 154.352C285.653 156.429 285.826 158.852 285.999 161.622C286.172 164.045 286.259 166.815 286.259 169.93C286.432 173.046 286.692 176.335 287.038 179.797C278.383 177.547 270.507 175.816 263.41 174.604C256.313 173.219 250.255 172.267 245.235 171.748C239.35 171.055 234.071 170.709 229.397 170.709C224.551 170.882 219.185 171.315 213.299 172.008C208.107 172.7 201.875 173.738 194.605 175.123C187.508 176.335 179.459 178.152 170.458 180.576C169.766 178.672 169.16 176.768 168.641 174.864C168.122 172.786 167.689 170.796 167.343 168.892C166.823 166.815 166.391 164.738 166.044 162.66C165.698 160.583 165.352 158.593 165.006 156.689C164.66 154.958 164.4 153.14 164.227 151.236C164.054 149.332 163.881 147.515 163.708 145.784C177.555 136.956 188.806 128.993 197.461 121.897C206.116 114.627 212.953 108.482 217.973 103.462C223.685 97.5767 228.012 92.2108 230.955 87.3641C233.898 81.4789 236.321 74.9879 238.225 67.891C240.129 60.7941 240.735 54.2165 240.043 48.1582C239.523 42.0998 237.446 37.1666 233.811 33.3585C230.176 29.3774 224.377 27.6464 216.415 28.1657C211.222 28.5119 206.289 30.3294 201.615 33.6182C197.115 36.907 192.961 40.8882 189.153 45.5617C185.345 50.2353 181.969 55.255 179.027 60.621C176.084 65.8138 173.574 70.747 171.497 75.4206C169.593 80.0942 168.035 83.9888 166.823 87.1045C165.785 90.2202 165.266 91.8646 165.266 92.0377C165.092 92.3839 164.833 91.0857 164.487 88.1431C164.314 85.2005 164.054 81.5655 163.708 77.2381C163.535 72.7376 163.275 68.0641 162.929 63.2174C162.583 58.3707 162.236 54.303 161.89 51.0142C161.717 48.4178 161.457 45.0424 161.111 40.8882C160.592 34.1375 159.553 23.4921 157.996 8.95217Z" fill="#613D80" fill-opacity="0.06"/>
</svg>
