<svg width="285" height="192" viewBox="0 0 285 192" fill="none" xmlns="http://www.w3.org/2000/svg">
<path d="M73.0457 0.941831C81.008 0.768736 89.0569 2.58623 97.1924 6.39432C105.328 10.2024 112.684 16.0011 119.262 23.7903C125.84 31.4065 131.206 41.0133 135.36 52.6106C139.514 64.208 141.678 77.7959 141.851 93.3745C142.024 103.76 141.245 113.194 139.514 121.675C137.783 130.157 135.446 137.773 132.504 144.524C129.561 151.102 126.186 156.987 122.378 162.18C118.743 167.199 115.021 171.527 111.213 175.162C107.405 178.624 103.77 181.393 100.308 183.47C96.8462 185.547 93.9036 186.932 91.4803 187.625C88.3646 188.663 84.643 189.615 80.3156 190.481C75.9883 191.173 71.4878 191.606 66.8142 191.779C62.1407 192.125 57.4671 191.865 52.7936 191C48.2931 190.308 44.3119 188.923 40.85 186.846C37.3881 184.769 33.3204 181.826 28.6468 178.018C24.1464 174.037 19.819 168.671 15.6647 161.92C11.5104 154.996 7.962 146.342 5.01939 135.956C2.07677 125.57 0.605469 112.848 0.605469 97.7884C0.605469 82.7291 2.33642 69.2277 5.79831 57.2842C9.43331 45.3407 14.3665 35.2146 20.5979 26.9061C27.0024 18.5975 34.6186 12.2795 43.4464 7.95217C52.4474 3.45171 62.3138 1.11493 73.0457 0.941831ZM36.4361 97.5288C36.263 107.741 36.8688 116.656 38.2536 124.272C39.6384 131.888 41.2828 138.293 43.1868 143.485C45.0908 148.678 46.9949 152.833 48.8989 155.948C50.9761 158.891 52.5339 160.968 53.5725 162.18C54.6111 163.738 56.5151 164.776 59.2846 165.295C62.0541 165.815 64.9967 166.074 68.1125 166.074C71.2282 165.901 74.2573 165.468 77.1999 164.776C80.1425 163.911 82.3928 162.786 83.9506 161.401C84.8161 160.535 86.0278 158.372 87.5856 154.91C89.3166 151.448 90.961 146.947 92.5188 141.408C94.2498 135.869 95.8076 129.465 97.1924 122.195C98.5772 114.752 99.5292 106.789 100.048 98.3077C100.568 88.7875 100.568 80.0462 100.048 72.0838C99.5292 63.9484 98.7502 56.8515 97.7117 50.7931C96.6731 44.7348 95.4614 39.7151 94.0767 35.7339C92.6919 31.7527 91.2206 29.0697 89.6628 27.685C87.4125 25.6078 84.643 24.1365 81.3542 23.2711C78.2385 22.4056 75.0363 22.0594 71.7475 22.2325C68.6317 22.4056 65.6026 23.0114 62.66 24.05C59.8905 25.0886 57.7268 26.4733 56.1689 28.2043C53.0532 31.6662 50.2837 35.3012 47.8604 39.1092C45.437 42.9173 43.4464 47.5043 41.8886 52.8703C40.3307 58.2362 39.0325 64.5542 37.994 71.8242C37.1285 78.9211 36.6092 87.4893 36.4361 97.5288Z" fill="#613D80" fill-opacity="0.06"/>
<path d="M155.352 1.20147C158.295 3.27861 161.324 4.83646 164.44 5.87503C167.555 6.9136 170.325 7.69253 172.748 8.21181C175.691 8.90419 178.547 9.25038 181.316 9.25038C184.778 9.25038 187.894 8.81765 190.664 7.95217C193.606 7.0867 196.808 6.22122 200.27 5.35575C203.732 4.49028 207.713 3.7979 212.214 3.27861C216.714 2.58623 222.34 2.49968 229.091 3.01897C235.841 3.53825 241.9 5.09611 247.266 7.69253C252.632 10.1159 257.132 13.2316 260.767 17.0397C264.575 20.6746 267.518 24.7424 269.595 29.2428C271.672 33.7433 272.711 38.3303 272.711 43.0039C272.364 50.1008 271.239 56.7649 269.335 62.9963C267.604 68.3623 264.921 73.6417 261.286 78.8345C257.651 83.8543 252.285 87.4027 245.188 89.4798C253.843 90.6915 260.594 92.9417 265.441 96.2305C270.46 99.5193 274.355 102.895 277.124 106.357C280.24 110.511 282.404 115.011 283.616 119.858C284.654 126.263 284.568 132.84 283.356 139.591C282.144 146.168 279.894 152.4 276.605 158.285C273.489 163.997 269.162 169.103 263.623 173.604C258.257 177.931 251.766 181.134 244.15 183.211C238.957 184.595 232.985 184.942 226.235 184.249C219.657 183.384 213.252 182.172 207.021 180.614C200.79 179.056 195.164 177.499 190.144 175.941C185.125 174.383 181.663 173.69 179.759 173.864C178.201 174.037 176.383 174.643 174.306 175.681C172.402 176.547 170.152 177.931 167.555 179.835C165.132 181.566 162.19 184.076 158.728 187.365C159.593 179.576 160.199 173.344 160.545 168.671C161.064 163.997 161.497 160.276 161.843 157.506C162.19 154.39 162.363 152.054 162.363 150.496V144.784C162.363 142.707 162.276 140.024 162.103 136.735C161.93 133.446 161.757 129.292 161.584 124.272C170.412 135.004 178.72 143.053 186.509 148.419C194.299 153.785 201.136 157.679 207.021 160.103C213.945 162.872 220.263 164.17 225.975 163.997C230.822 163.651 234.716 162.093 237.659 159.324C240.601 156.381 242.679 152.919 243.89 148.938C245.102 144.957 245.535 140.716 245.188 136.215C244.842 131.542 243.717 127.215 241.813 123.233C240.082 119.079 237.659 115.531 234.543 112.588C231.427 109.472 227.792 107.568 223.638 106.876C218.618 106.01 213.858 105.924 209.358 106.616C205.377 107.136 201.222 108.347 196.895 110.251C192.568 111.982 188.933 115.011 185.99 119.339C185.644 116.396 185.384 113.886 185.211 111.809C185.211 109.732 185.125 108.001 184.951 106.616C184.778 105.058 184.692 103.933 184.692 103.241C184.692 102.375 184.605 101.077 184.432 99.3463C184.259 97.9615 184.086 96.144 183.913 93.8938C183.913 91.4704 183.74 88.4413 183.394 84.8063C186.509 85.6718 189.452 86.3641 192.221 86.8834C194.991 87.2296 197.414 87.4893 199.491 87.6624C201.915 87.8354 204.165 87.8354 206.242 87.6624C208.839 87.4893 211.954 86.5372 215.589 84.8063C219.397 82.9022 222.946 80.3924 226.235 77.2767C229.523 74.1609 232.12 70.4394 234.024 66.112C236.101 61.7847 236.793 57.0246 236.101 51.8317C234.543 41.2729 230.995 33.7433 225.456 29.2428C220.09 24.5693 214.551 22.4056 208.839 22.7518C205.03 23.2711 200.53 25.0886 195.337 28.2043C190.837 30.8007 185.471 34.7819 179.239 40.1478C173.181 45.3407 166.257 52.6972 158.468 62.2174C158.814 57.5438 158.987 53.3896 158.987 49.7546C158.987 45.9465 158.987 42.8308 158.987 40.4075C158.987 37.4648 158.901 34.8684 158.728 32.6182L157.949 24.8289C157.602 22.2325 157.256 18.9437 156.91 14.9625C156.564 10.9813 156.045 6.39432 155.352 1.20147Z" fill="#613D80" fill-opacity="0.06"/>
</svg>
