<svg width="289" height="192" viewBox="0 0 289 192" fill="none" xmlns="http://www.w3.org/2000/svg">
<path d="M72.6365 0.941831C80.5988 0.768736 88.6478 2.58623 96.7832 6.39432C104.919 10.2024 112.275 16.0011 118.853 23.7903C125.43 31.4065 130.796 41.0133 134.951 52.6106C139.105 64.208 141.269 77.7959 141.442 93.3745C141.615 103.76 140.836 113.194 139.105 121.675C137.374 130.157 135.037 137.773 132.095 144.524C129.152 151.102 125.777 156.987 121.969 162.18C118.334 167.199 114.612 171.527 110.804 175.162C106.996 178.624 103.361 181.393 99.8989 183.47C96.437 185.547 93.4944 186.932 91.0711 187.625C87.9554 188.663 84.2338 189.615 79.9065 190.481C75.5791 191.173 71.0786 191.606 66.4051 191.779C61.7315 192.125 57.0579 191.865 52.3844 191C47.8839 190.308 43.9027 188.923 40.4408 186.846C36.9789 184.769 32.9112 181.826 28.2377 178.018C23.7372 174.037 19.4098 168.671 15.2555 161.92C11.1013 154.996 7.55282 146.342 4.61021 135.956C1.6676 125.57 0.196289 112.848 0.196289 97.7884C0.196289 82.7291 1.92724 69.2277 5.38913 57.2842C9.02413 45.3407 13.9573 35.2146 20.1887 26.9061C26.5933 18.5975 34.2094 12.2795 43.0373 7.95217C52.0382 3.45171 61.9046 1.11493 72.6365 0.941831ZM36.0269 97.5288C35.8538 107.741 36.4597 116.656 37.8444 124.272C39.2292 131.888 40.8736 138.293 42.7776 143.485C44.6817 148.678 46.5857 152.833 48.4898 155.948C50.5669 158.891 52.1247 160.968 53.1633 162.18C54.2019 163.738 56.1059 164.776 58.8754 165.295C61.645 165.815 64.5876 166.074 67.7033 166.074C70.819 165.901 73.8481 165.468 76.7908 164.776C79.7334 163.911 81.9836 162.786 83.5415 161.401C84.4069 160.535 85.6186 158.372 87.1765 154.91C88.9074 151.448 90.5518 146.947 92.1097 141.408C93.8406 135.869 95.3985 129.465 96.7832 122.195C98.168 114.752 99.12 106.789 99.6393 98.3077C100.159 88.7875 100.159 80.0462 99.6393 72.0838C99.12 63.9484 98.3411 56.8515 97.3025 50.7931C96.2639 44.7348 95.0523 39.7151 93.6675 35.7339C92.2828 31.7527 90.8114 29.0697 89.2536 27.685C87.0034 25.6078 84.2338 24.1365 80.945 23.2711C77.8293 22.4056 74.6271 22.0594 71.3383 22.2325C68.2226 22.4056 65.1934 23.0114 62.2508 24.05C59.4813 25.0886 57.3176 26.4733 55.7597 28.2043C52.644 31.6662 49.8745 35.3012 47.4512 39.1092C45.0279 42.9173 43.0373 47.5043 41.4794 52.8703C39.9216 58.2362 38.6233 64.5542 37.5848 71.8242C36.7193 78.9211 36.2 87.4893 36.0269 97.5288Z" fill="#613D80" fill-opacity="0.06"/>
<path d="M192.072 3.01897C197.784 3.36516 202.458 3.6248 206.093 3.7979C209.901 3.97099 212.93 4.05754 215.18 4.05754C217.777 4.23063 219.767 4.23063 221.152 4.05754H227.903C230.499 4.05754 234.134 4.14409 238.808 4.31718C243.654 4.31718 249.972 4.40373 257.761 4.57682C256.896 5.78849 256.204 7.25979 255.684 8.99074C255.165 10.7217 254.732 12.4526 254.386 14.1836C253.867 16.0876 253.521 18.1648 253.348 20.415C253.174 23.1845 252.828 27.5119 252.309 33.3971C251.963 38.4169 251.443 45.4272 250.751 54.4281C250.232 63.256 249.539 74.7668 248.674 88.9606C253.694 88.9606 258.021 88.5278 261.656 87.6624C265.291 86.6238 268.32 85.4121 270.744 84.0274C273.513 82.6426 275.763 80.9982 277.494 79.0942C278.36 78.0556 279.312 76.9305 280.35 75.7188C281.216 74.6802 282.341 73.5551 283.726 72.3435C285.11 71.1318 286.582 69.8336 288.14 68.4488C287.793 73.1224 287.534 77.1901 287.361 80.652C287.188 83.9408 287.014 86.7103 286.841 88.9606C286.668 91.557 286.495 93.6341 286.322 95.192C286.322 97.096 286.149 99.6059 285.803 102.722C285.457 105.491 285.11 109.213 284.764 113.886C284.418 118.387 284.072 124.099 283.726 131.023C281.995 127.561 280.35 124.878 278.792 122.974C277.408 120.897 276.196 119.339 275.157 118.3C273.773 117.088 272.561 116.223 271.522 115.704C270.311 115.358 268.666 115.011 266.589 114.665C264.685 114.319 262.262 114.146 259.319 114.146C256.55 113.973 252.915 113.8 248.414 113.627C248.414 123.839 248.587 132.061 248.934 138.293C249.453 144.524 249.972 149.371 250.491 152.833C251.184 156.987 251.963 159.929 252.828 161.66C253.867 163.218 255.338 165.036 257.242 167.113C258.973 169.017 261.31 171.267 264.252 173.864C267.195 176.46 271.003 179.403 275.677 182.691C271.696 183.557 267.887 184.163 264.252 184.509C260.791 184.682 257.588 184.942 254.646 185.288C251.357 185.634 248.241 185.807 245.299 185.807C242.183 185.807 238.375 185.98 233.874 186.326C229.893 186.673 224.96 187.019 219.075 187.365C213.189 187.711 206.093 188.144 197.784 188.663C200.727 185.721 203.063 183.038 204.794 180.614C206.698 178.018 208.17 175.768 209.208 173.864C210.42 171.786 211.285 169.969 211.805 168.411C212.151 166.507 212.67 163.305 213.363 158.804C213.882 154.996 214.488 149.717 215.18 142.966C215.872 136.215 216.651 127.301 217.517 116.223L146.894 117.002L148.192 99.6059C156.674 87.4893 163.425 77.4498 168.444 69.4874C173.637 61.3519 177.619 54.7743 180.388 49.7546C183.504 44.0424 185.754 39.542 187.139 36.2532C188.004 33.1375 188.783 29.8487 189.476 26.3868C190.168 23.4442 190.774 19.9823 191.293 16.0011C191.812 11.8468 192.072 7.51943 192.072 3.01897ZM220.633 91.557C220.979 86.8834 221.238 82.6426 221.412 78.8345C221.758 74.8533 222.017 71.3914 222.19 68.4488C222.364 65.16 222.45 62.0443 222.45 59.1017V49.4949C222.45 46.3792 222.45 42.7442 222.45 38.59C222.623 34.2626 222.796 29.4159 222.969 24.05L184.802 92.0763L220.633 91.557Z" fill="#613D80" fill-opacity="0.06"/>
</svg>
