<svg width="276" height="192" viewBox="0 0 276 192" fill="none" xmlns="http://www.w3.org/2000/svg">
<path d="M72.8621 0.941831C80.8244 0.768736 88.8733 2.58623 97.0088 6.39432C105.144 10.2024 112.501 16.0011 119.078 23.7903C125.656 31.4065 131.022 41.0133 135.176 52.6106C139.33 64.208 141.494 77.7959 141.667 93.3745C141.84 103.76 141.061 113.194 139.33 121.675C137.6 130.157 135.263 137.773 132.32 144.524C129.378 151.102 126.002 156.987 122.194 162.18C118.559 167.199 114.838 171.527 111.029 175.162C107.221 178.624 103.586 181.393 100.125 183.47C96.6626 185.547 93.72 186.932 91.2967 187.625C88.181 188.663 84.4594 189.615 80.132 190.481C75.8047 191.173 71.3042 191.606 66.6307 191.779C61.9571 192.125 57.2835 191.865 52.61 191C48.1095 190.308 44.1283 188.923 40.6664 186.846C37.2045 184.769 33.1368 181.826 28.4632 178.018C23.9628 174.037 19.6354 168.671 15.4811 161.92C11.3269 154.996 7.77841 146.342 4.83579 135.956C1.89318 125.57 0.421875 112.848 0.421875 97.7884C0.421875 82.7291 2.15282 69.2277 5.61472 57.2842C9.24971 45.3407 14.1829 35.2146 20.4143 26.9061C26.8188 18.5975 34.435 12.2795 43.2629 7.95217C52.2638 3.45171 62.1302 1.11493 72.8621 0.941831ZM36.2525 97.5288C36.0794 107.741 36.6852 116.656 38.07 124.272C39.4548 131.888 41.0992 138.293 43.0032 143.485C44.9073 148.678 46.8113 152.833 48.7153 155.948C50.7925 158.891 52.3503 160.968 53.3889 162.18C54.4275 163.738 56.3315 164.776 59.101 165.295C61.8705 165.815 64.8132 166.074 67.9289 166.074C71.0446 165.901 74.0737 165.468 77.0163 164.776C79.959 163.911 82.2092 162.786 83.767 161.401C84.6325 160.535 85.8442 158.372 87.402 154.91C89.133 151.448 90.7774 146.947 92.3352 141.408C94.0662 135.869 95.624 129.465 97.0088 122.195C98.3936 114.752 99.3456 106.789 99.8649 98.3077C100.384 88.7875 100.384 80.0462 99.8649 72.0838C99.3456 63.9484 98.5667 56.8515 97.5281 50.7931C96.4895 44.7348 95.2779 39.7151 93.8931 35.7339C92.5083 31.7527 91.037 29.0697 89.4792 27.685C87.2289 25.6078 84.4594 24.1365 81.1706 23.2711C78.0549 22.4056 74.8527 22.0594 71.5639 22.2325C68.4482 22.4056 65.419 23.0114 62.4764 24.05C59.7069 25.0886 57.5432 26.4733 55.9853 28.2043C52.8696 31.6662 50.1001 35.3012 47.6768 39.1092C45.2534 42.9173 43.2629 47.5043 41.705 52.8703C40.1471 58.2362 38.8489 64.5542 37.8104 71.8242C36.9449 78.9211 36.4256 87.4893 36.2525 97.5288Z" fill="#613D80" fill-opacity="0.06"/>
<path d="M162.439 4.57682C170.747 6.13468 178.017 7.25979 184.249 7.95217C190.48 8.64455 195.759 9.16384 200.087 9.51003C205.107 9.85622 209.434 9.94276 213.069 9.76967C216.704 9.76967 221.291 9.51003 226.83 8.99074C231.504 8.64455 237.389 8.21181 244.486 7.69253C251.756 7.00015 260.324 6.22122 270.19 5.35575C269.671 10.0293 269.152 14.2701 268.632 18.0782C268.286 21.7132 267.94 24.8289 267.594 27.4253C267.248 30.541 266.988 33.3106 266.815 35.7339C266.642 38.3303 266.382 41.2729 266.036 44.5617C265.69 47.5043 265.344 51.1393 264.997 55.4667C264.824 59.7941 264.651 64.8138 264.478 70.526C257.9 59.621 251.929 51.2259 246.563 45.3407C241.197 39.2823 236.523 34.7819 232.542 31.8393C228.042 28.5505 223.974 26.5599 220.339 25.8675H209.694C206.578 25.8675 203.202 25.954 199.568 26.1271C195.933 26.3002 192.644 26.6464 189.701 27.1657L190.74 88.4413C194.202 84.1139 198.01 80.9116 202.164 78.8345C206.318 76.7574 210.386 75.2861 214.367 74.4206C218.868 73.5551 223.455 73.2089 228.128 73.382C240.245 74.4206 249.592 76.4977 256.17 79.6134C262.92 82.7291 267.767 87.3162 270.709 93.3745C272.094 96.4902 273.219 101.25 274.085 107.655C275.123 113.886 275.47 120.637 275.123 127.907C274.777 135.177 273.652 142.36 271.748 149.457C269.844 156.381 266.815 162.007 262.661 166.334C258.506 170.488 254.439 173.95 250.457 176.72C246.476 179.316 242.495 181.48 238.514 183.211C234.533 184.769 230.378 185.894 226.051 186.586C221.724 187.278 217.137 187.798 212.29 188.144C204.501 188.663 197.058 187.798 189.961 185.547C182.864 183.297 176.632 180.268 171.266 176.46C165.901 172.652 161.573 168.584 158.284 164.257C154.996 159.756 153.178 155.689 152.832 152.054C152.486 149.284 152.313 146.515 152.313 143.745C152.313 141.322 152.399 138.812 152.572 136.215C152.918 133.619 153.524 131.369 154.39 129.465L221.637 134.138C215.059 136.215 210.126 138.466 206.837 140.889C203.549 143.139 201.212 145.303 199.827 147.38C198.096 149.803 197.404 152.227 197.75 154.65C198.962 160.881 201.125 165.988 204.241 169.969C207.357 173.777 210.905 175.335 214.886 174.643C216.964 174.296 219.3 172.912 221.897 170.488C224.666 167.892 227.263 164.69 229.686 160.881C232.282 157.073 234.533 152.833 236.437 148.159C238.514 143.312 239.812 138.466 240.331 133.619C240.851 128.772 241.197 123.666 241.37 118.3C241.716 112.934 241.543 108.001 240.851 103.501C240.158 99.0001 238.947 95.2785 237.216 92.3359C235.485 89.2202 232.975 87.6624 229.686 87.6624C226.916 88.0085 223.801 89.1337 220.339 91.0377C217.396 92.7686 213.848 95.3651 209.694 98.827C205.712 102.289 201.212 107.309 196.192 113.886C192.73 113.021 189.788 112.155 187.364 111.29C185.114 110.251 183.21 109.386 181.652 108.693C179.748 108.001 178.277 107.222 177.238 106.357C176.2 105.664 174.815 104.799 173.084 103.76C171.699 102.895 169.968 101.856 167.891 100.644C165.814 99.2597 163.304 97.6153 160.362 95.7113C161.054 88.9606 161.487 83.2484 161.66 78.5749C161.833 73.9013 162.006 70.0932 162.179 67.1506V58.5824C162.006 56.1591 161.919 52.6106 161.919 47.9371C161.919 43.9559 161.919 38.5034 161.919 31.5796C161.919 24.4827 162.092 15.4818 162.439 4.57682Z" fill="#613D80" fill-opacity="0.06"/>
</svg>
