<svg width="282" height="205" viewBox="0 0 282 205" fill="none" xmlns="http://www.w3.org/2000/svg">
<path d="M72.9744 2.94188C80.9367 2.76879 88.9857 4.58628 97.1211 8.39437C105.257 12.2025 112.613 18.0011 119.191 25.7904C125.768 33.4066 131.134 43.0133 135.289 54.6107C139.443 66.208 141.606 79.796 141.78 95.3745C141.953 105.76 141.174 115.194 139.443 123.676C137.712 132.157 135.375 139.773 132.432 146.524C129.49 153.102 126.114 158.987 122.306 164.18C118.671 169.199 114.95 173.527 111.142 177.162C107.334 180.624 103.699 183.393 100.237 185.47C96.7749 187.548 93.8323 188.932 91.409 189.625C88.2933 190.663 84.5717 191.615 80.2444 192.481C75.917 193.173 71.4165 193.606 66.743 193.779C62.0694 194.125 57.3958 193.866 52.7223 193C48.2218 192.308 44.2406 190.923 40.7787 188.846C37.3168 186.769 33.2491 183.826 28.5755 180.018C24.0751 176.037 19.7477 170.671 15.5934 163.92C11.4392 156.996 7.89071 148.342 4.9481 137.956C2.00549 127.57 0.53418 114.848 0.53418 99.7885C0.53418 84.7292 2.26513 71.2278 5.72703 59.2843C9.36202 47.3407 14.2952 37.2147 20.5266 28.9061C26.9311 20.5976 34.5473 14.2796 43.3752 9.95222C52.3761 5.45176 62.2425 3.11498 72.9744 2.94188ZM36.3648 99.5288C36.1917 109.741 36.7975 118.656 38.1823 126.272C39.5671 133.888 41.2115 140.293 43.1155 145.485C45.0196 150.678 46.9236 154.833 48.8276 157.948C50.9048 160.891 52.4626 162.968 53.5012 164.18C54.5398 165.738 56.4438 166.776 59.2133 167.295C61.9829 167.815 64.9255 168.074 68.0412 168.074C71.1569 167.901 74.186 167.469 77.1286 166.776C80.0713 165.911 82.3215 164.786 83.8793 163.401C84.7448 162.535 85.9565 160.372 87.5143 156.91C89.2453 153.448 90.8897 148.947 92.4475 143.408C94.1785 137.869 95.7364 131.465 97.1211 124.195C98.5059 116.752 99.4579 108.789 99.9772 100.308C100.496 90.7875 100.496 82.0462 99.9772 74.0839C99.4579 65.9484 98.679 58.8515 97.6404 52.7932C96.6018 46.7349 95.3902 41.7151 94.0054 37.7339C92.6206 33.7528 91.1493 31.0698 89.5915 29.685C87.3412 27.6079 84.5717 26.1366 81.2829 25.2711C78.1672 24.4056 74.965 24.0595 71.6762 24.2325C68.5605 24.4056 65.5313 25.0115 62.5887 26.05C59.8192 27.0886 57.6555 28.4734 56.0976 30.2043C52.9819 33.6662 50.2124 37.3012 47.7891 41.1093C45.3657 44.9174 43.3752 49.5044 41.8173 54.8703C40.2594 60.2363 38.9612 66.5542 37.9227 73.8242C37.0572 80.9211 36.5379 89.4893 36.3648 99.5288Z" fill="#613D80" fill-opacity="0.06"/>
<path d="M254.984 0.0858154L259.917 65.5157C258.532 59.4574 256.368 54.9569 253.426 52.0143C250.656 49.0717 247.8 47.0811 244.858 46.0425C241.396 44.8308 237.588 44.4846 233.433 45.0039C223.74 47.4273 215.172 52.1008 207.729 59.0246C204.613 61.9672 201.497 65.5157 198.382 69.6699C195.266 73.8242 192.496 78.844 190.073 84.7292C187.823 90.4413 186.005 97.0189 184.621 104.462C183.236 111.905 182.543 120.387 182.543 129.907C185.313 122.464 188.429 116.232 191.891 111.213C195.352 106.02 198.987 101.866 202.796 98.7499C206.777 95.4611 210.758 92.9512 214.739 91.2203C218.72 89.4893 222.615 88.3642 226.423 87.8449C235.251 86.4601 244.338 87.4987 253.685 90.9606C261.128 94.2494 267.1 99.1826 271.601 105.76C276.101 112.165 279.044 119.435 280.429 127.57C281.813 135.533 281.727 143.841 280.169 152.496C278.784 160.977 275.928 168.853 271.601 176.123C267.446 183.393 261.821 189.538 254.724 194.558C247.627 199.751 239.232 202.866 229.539 203.905C214.999 205.463 202.017 203.213 190.592 197.154C179.341 191.269 170.427 182.701 163.849 171.45C157.272 160.199 153.55 146.87 152.685 131.465C151.819 115.886 154.502 99.3557 160.733 81.8731C163.503 74.0839 166.619 66.5542 170.081 59.2843C173.542 51.8412 178.562 44.7443 185.14 37.9936C191.717 31.2429 200.459 24.7518 211.364 18.5204C222.442 12.1159 236.982 5.97104 254.984 0.0858154ZM199.42 150.419C199.939 155.785 201.065 160.718 202.796 165.218C204.526 169.719 206.517 173.613 208.767 176.902C211.191 180.191 213.7 182.787 216.297 184.691C219.066 186.422 221.663 187.201 224.086 187.028C229.106 186.682 233.347 183.393 236.809 177.162C240.444 170.757 242.607 162.276 243.3 151.717C243.646 146.524 242.954 141.331 241.223 136.138C239.665 130.772 237.674 126.012 235.251 121.858C232.827 117.704 230.145 114.415 227.202 111.992C224.432 109.395 221.922 108.184 219.672 108.357C216.21 108.876 213.095 110.347 210.325 112.771C207.729 115.194 205.478 118.31 203.574 122.118C201.843 125.926 200.545 130.34 199.68 135.359C198.987 140.206 198.901 145.226 199.42 150.419Z" fill="#613D80" fill-opacity="0.06"/>
</svg>
