<svg width="261" height="33" viewBox="0 0 261 33" fill="none" xmlns="http://www.w3.org/2000/svg">
<g clip-path="url(#clip0_8_655)">
<path d="M16.5626 9.76038C16.8612 9.33701 17.2208 8.93881 17.5468 8.53498L19.6209 5.98149L21.301 3.89191C21.6401 3.46662 21.9677 3.02885 22.3322 2.62476C22.3618 2.83421 22.1049 3.99943 22.05 4.30058L21.4298 7.72444C21.8027 7.74383 22.1832 7.72711 22.5573 7.72822L24.9066 7.73456C24.4696 8.2796 24.0498 8.83739 23.6161 9.38485L19.9218 13.9719L19.7836 14.1301C19.7373 13.6238 19.759 13.0966 19.7563 12.588L19.7489 9.77957C18.6887 9.78475 17.6217 9.80943 16.5626 9.76038Z" fill="white"/>
<path d="M6.44822 5.39832C6.94406 5.16339 7.47389 4.99293 7.98474 4.79355C8.43758 4.61684 8.88266 4.42044 9.33509 4.24252C9.89997 4.02038 10.4727 3.81728 11.0338 3.58583L11.0538 3.59217C11.061 3.60652 11.0709 3.61982 11.0753 3.63528C11.1026 3.73192 11.0709 4.49336 11.0708 4.65224C11.0792 6.26395 11.079 7.87572 11.0703 9.48743C11.0697 9.79024 11.0608 10.0948 11.0725 10.3973C11.083 10.6669 11.1189 10.9463 11.0963 11.2154C11.0736 11.4856 10.9728 11.763 10.8179 11.9858C10.5498 12.3717 10.1777 12.6522 9.70856 12.7334C9.25748 12.8091 8.79478 12.703 8.42176 12.4384C8.05091 12.1666 7.80395 11.758 7.73571 11.3033C7.66889 10.8496 7.78477 10.388 8.05787 10.0196C8.33767 9.64329 8.75081 9.42815 9.21075 9.36636C9.74542 9.29445 10.1512 9.46764 10.5659 9.78823C10.5998 8.29511 10.5793 6.79263 10.5691 5.29906C10.2966 5.39218 10.0215 5.48212 9.75232 5.5845C8.60205 6.02208 7.80899 6.7528 7.30192 7.87954C7.1597 8.2023 7.06296 8.54323 7.01436 8.89253C6.95751 9.30674 6.98178 9.73233 6.98203 10.1496C6.98057 10.7655 6.98374 11.3814 6.9915 11.9972C6.999 12.3734 7.05465 12.7712 6.9845 13.1435C6.93394 13.4118 6.81408 13.6578 6.64804 13.8737C6.37318 14.2311 5.96456 14.4869 5.51354 14.5429C5.05819 14.5994 4.57267 14.4587 4.21411 14.1738C3.86587 13.8944 3.64449 13.4866 3.59972 13.0424C3.54926 12.541 3.69264 12.0129 4.01796 11.6243C4.31624 11.2682 4.74858 11.0755 5.20771 11.0419C5.69761 11.0062 6.08387 11.1781 6.44651 11.4957C6.46589 9.46331 6.46645 7.43074 6.44822 5.39832Z" fill="white"/>
<path d="M13.3186 4.20797L14.6511 2.90421C14.708 3.04315 14.6632 4.81979 14.6635 5.17372L14.6654 12.8581C14.6683 13.6888 14.6489 14.5198 14.6646 15.3504L27.0106 15.3744C26.609 15.8433 26.1568 16.2759 25.7241 16.7159C22.0417 16.7592 18.3569 16.679 14.6741 16.7209L14.6719 27.6192C14.2693 28.0821 13.8044 28.5145 13.3718 28.9504L13.339 28.9578C13.279 28.8175 13.3224 17.8658 13.3224 16.7035C10.528 16.6835 7.73363 16.6777 4.93922 16.6862C3.61391 16.6855 2.27817 16.7172 0.953856 16.6729C1.34878 16.2702 1.83545 15.7093 2.2975 15.3976C2.77315 15.3592 3.25922 15.3744 3.73633 15.3731L13.3245 15.3676L13.3186 4.20797Z" fill="white"/>
<path d="M3.1027 24.3142C3.82637 23.3224 4.6354 22.3768 5.39825 21.4139C6.33132 20.2361 7.24036 19.0168 8.25934 17.9127L8.26941 17.9235C8.32919 18.1508 8.28381 18.8269 8.2828 19.0954C8.27893 20.1515 8.31151 21.2581 8.24096 22.3085C9.30334 22.2818 10.3661 22.2715 11.4288 22.2776C11.1508 22.5871 10.905 22.9228 10.6441 23.2464L9.35693 24.8345C8.77492 25.5604 8.16094 26.2593 7.57717 26.9828C7.34415 27.2716 5.6994 29.384 5.58886 29.4368L5.57602 29.3879C5.94823 27.7096 6.20406 25.9985 6.50717 24.3061L3.1027 24.3142Z" fill="white"/>
<path d="M16.7236 22.7895C17.3304 22.3167 17.8739 21.7252 18.4112 21.1764C18.964 20.6183 19.513 20.0564 20.058 19.4907C20.4735 19.0509 20.8851 18.5552 21.3555 18.1755C21.7931 18.1596 22.2332 18.1795 22.6709 18.1902C22.132 18.6869 21.6285 19.2334 21.122 19.7634C20.596 20.3152 20.0641 20.8613 19.5262 21.4016C19.1484 21.7863 18.7718 22.2306 18.3498 22.5643C18.2125 22.6728 18.0741 22.7422 17.9138 22.8079C17.5055 22.9378 17.1307 22.9014 16.7236 22.7895Z" fill="white"/>
<path d="M15.9305 23.3957C16.434 23.7465 17.0427 23.8641 17.6479 23.8111C18.0401 23.7768 18.4127 23.6687 18.7373 23.4426C19.1383 23.1635 19.4727 22.7791 19.8134 22.4316C20.3531 21.88 20.8901 21.3256 21.4242 20.7686L22.9999 19.1411C23.311 18.821 23.6403 18.5133 23.9274 18.1712C24.017 18.167 24.1068 18.1651 24.1965 18.1656C24.6932 18.1645 25.1381 18.2867 25.4953 18.6494C26.0492 19.212 25.9149 19.9857 25.9111 20.7048C25.6051 20.3686 25.2308 20.106 24.7802 20.0071C24.3144 19.9047 23.7808 19.9868 23.3664 20.2236C22.9975 20.4345 22.7146 20.8273 22.4173 21.1254C21.4142 22.1309 20.4394 23.1619 19.4439 24.1745C19.0435 24.5818 18.5718 25.167 18.0939 25.4661L18.0635 25.4847C17.8687 25.5735 17.655 25.6116 17.4415 25.6106C17.029 25.611 16.6335 25.4463 16.3432 25.1532C15.8532 24.6564 15.9216 24.0337 15.9305 23.3957Z" fill="white"/>
<path d="M15.9366 25.9063C16.0354 26.0152 16.1352 26.1181 16.2569 26.2024C16.8427 26.6083 17.7873 26.6917 18.4284 26.363C18.9643 26.0882 19.4419 25.4887 19.8655 25.0569L22.5126 22.3375C22.9067 21.9292 23.2858 21.4457 23.7178 21.0826C23.8318 20.9868 23.9141 20.9455 24.0605 20.9184L24.0781 20.918C24.6122 20.9111 25.1417 21.0167 25.5323 21.4104C26.0666 21.949 25.9173 22.7766 25.9092 23.4686C25.7056 23.2321 25.4716 23.0457 25.1838 22.922C24.6244 22.6815 23.9874 22.6995 23.4425 22.9713C22.9386 23.2226 22.5568 23.7207 22.1648 24.115L19.709 26.5684C19.249 27.0327 18.8025 27.5576 18.3014 27.9752C18.1529 28.0989 18.0094 28.177 17.8306 28.248C17.6765 28.2856 17.5307 28.3123 17.3715 28.3119C16.976 28.3109 16.6017 28.1605 16.3278 27.8724C15.8167 27.3347 15.9315 26.585 15.9366 25.9063Z" fill="white"/>
<path d="M19.2153 28.3775C19.5429 28.0838 19.8458 27.7607 20.1605 27.4529C20.9441 26.6918 21.7136 25.9163 22.4686 25.1269C22.7382 24.8487 23.0062 24.5689 23.2727 24.2875C23.4239 24.1277 23.5756 23.9433 23.7445 23.8029C23.8216 23.7388 23.9304 23.7281 24.0263 23.7104C24.0954 23.7062 24.1654 23.7056 24.2346 23.7052C24.7027 23.7023 25.2001 23.8698 25.533 24.2074C26.0556 24.7376 25.9101 25.5897 25.9089 26.2718C25.8786 26.2356 25.8473 26.2004 25.8149 26.1661C25.423 25.754 24.8818 25.5168 24.3131 25.508C23.3706 25.4955 22.8078 26.1374 22.1944 26.7528L21.216 27.7224C21.0017 27.9405 20.7917 28.1662 20.5599 28.3659C20.1125 28.3823 19.663 28.3791 19.2153 28.3775Z" fill="white"/>
</g>
<path d="M32.5469 6.49579C33.0755 6.58693 33.5404 6.65074 33.9414 6.68719C34.3607 6.72365 34.707 6.751 34.9805 6.76923C35.3086 6.78746 35.5911 6.79657 35.8281 6.79657C36.0651 6.79657 36.4023 6.77834 36.8398 6.74188C37.2044 6.70542 37.6784 6.65985 38.2617 6.60516C38.8633 6.55048 39.6016 6.45933 40.4766 6.33173C40.2214 6.40464 39.9844 6.61428 39.7656 6.96063C39.5651 7.28876 39.3828 7.64423 39.2188 8.02704C39.0182 8.48277 38.8451 8.98407 38.6992 9.53094C38.5716 10.0231 38.4076 10.6976 38.207 11.5544C38.0247 12.4112 37.8424 13.3408 37.6602 14.3434C37.4961 15.346 37.3685 16.3669 37.2773 17.4059C37.1862 18.4268 37.168 19.3656 37.2227 20.2224C37.2956 21.0791 37.4688 21.7901 37.7422 22.3552C38.0156 22.902 38.4349 23.1937 39 23.2302C39.8568 23.3031 40.5677 23.3122 41.1328 23.2575C41.7161 23.1846 42.1901 23.0843 42.5547 22.9567C42.9193 22.8291 43.2018 22.6833 43.4023 22.5192C43.6029 22.3369 43.7578 22.1638 43.8672 21.9997C44.1589 21.5804 44.4596 21.0427 44.7695 20.3864C45.0794 19.7302 45.3529 19.1013 45.5898 18.4997C45.8451 17.8981 46.0547 17.3877 46.2188 16.9684C46.3828 16.5492 46.4648 16.3487 46.4648 16.3669C46.4648 16.4033 46.4557 16.613 46.4375 16.9958C46.4375 17.3604 46.4284 17.807 46.4102 18.3356C46.4102 18.846 46.401 19.3838 46.3828 19.9489C46.3828 20.514 46.3737 20.9971 46.3555 21.3981C46.3372 21.7263 46.319 22.0908 46.3008 22.4919C46.2826 22.8382 46.2643 23.2484 46.2461 23.7224C46.2461 24.1963 46.2279 24.7158 46.1914 25.2809C45.4258 25.2263 44.6966 25.1898 44.0039 25.1716C43.3112 25.1533 42.7005 25.1442 42.1719 25.1442C41.5521 25.1442 40.9779 25.1533 40.4492 25.1716C39.8841 25.1898 39.2279 25.2171 38.4805 25.2536C37.8424 25.2901 37.0495 25.3356 36.1016 25.3903C35.1536 25.4268 34.0599 25.4815 32.8203 25.5544C32.9661 25.2992 33.0846 25.0622 33.1758 24.8434C33.2852 24.6247 33.3672 24.4424 33.4219 24.2966C33.4948 24.1143 33.5404 23.9593 33.5586 23.8317C33.668 23.2484 33.7591 22.5101 33.832 21.6169C33.9049 20.7054 33.9596 19.7393 33.9961 18.7184C34.0508 17.6976 34.0781 16.6585 34.0781 15.6013C34.0964 14.5257 34.0964 13.5322 34.0781 12.6208C34.0599 11.7093 34.0234 10.9164 33.9688 10.2419C33.9323 9.5674 33.8776 9.10256 33.8047 8.84735C33.7135 8.55568 33.6042 8.26402 33.4766 7.97235C33.3672 7.71714 33.2305 7.46193 33.0664 7.20673C32.9206 6.93329 32.7474 6.69631 32.5469 6.49579ZM50.3488 7.80829C51.2602 7.86298 52.0258 7.90855 52.6456 7.94501C53.2836 7.96324 53.8123 7.98147 54.2316 7.99969C54.7055 8.01792 55.1066 8.01792 55.4347 7.99969C55.7628 7.98147 56.2094 7.93589 56.7745 7.86298C57.2485 7.80829 57.8774 7.72626 58.6613 7.61688C59.4633 7.48928 60.4568 7.32522 61.6417 7.12469C61.2224 7.54397 60.8943 7.92678 60.6573 8.27313C60.4386 8.60126 60.2654 8.88381 60.1378 9.12079C59.992 9.41246 59.8917 9.65855 59.837 9.85907C59.8006 10.0414 59.837 10.4971 59.9464 11.2263C60.0558 11.9554 60.2107 12.8213 60.4113 13.8239C60.6118 14.8083 60.8305 15.8656 61.0675 16.9958C61.3045 18.1078 61.5415 19.1559 61.7784 20.1403C62.0154 21.1065 62.2251 21.9359 62.4073 22.6286C62.6079 23.3031 62.7537 23.7041 62.8448 23.8317C63.1183 24.2145 63.2915 24.4697 63.3644 24.5974C63.4373 24.7067 63.5649 24.807 63.7472 24.8981C63.8201 24.9346 63.9386 24.9893 64.1027 25.0622C64.2485 25.1351 64.4399 25.2263 64.6769 25.3356C64.9321 25.445 65.2511 25.5726 65.6339 25.7184C64.923 25.7549 64.3123 25.7822 63.8019 25.8005C63.2915 25.8005 62.8722 25.8096 62.5441 25.8278C62.1613 25.846 61.8331 25.8643 61.5597 25.8825C61.2863 25.8825 60.9581 25.9007 60.5753 25.9372C60.2472 25.9737 59.8188 26.0101 59.2902 26.0466C58.7797 26.083 58.1782 26.1195 57.4855 26.1559C57.8501 25.9007 58.1417 25.6729 58.3605 25.4724C58.5974 25.2536 58.7797 25.0713 58.9073 24.9255C59.0532 24.7432 59.1534 24.5791 59.2081 24.4333C59.2446 24.2692 59.2719 24.0231 59.2902 23.695C59.3084 23.4033 59.3084 23.0205 59.2902 22.5466C59.2719 22.0544 59.2264 21.4164 59.1534 20.6325L51.962 21.3708C51.7797 21.6807 51.643 21.9541 51.5519 22.1911C51.4607 22.4099 51.3969 22.6013 51.3605 22.7653C51.3058 22.9658 51.2876 23.1299 51.3058 23.2575C51.3422 23.4033 51.406 23.5765 51.4972 23.777C51.5883 23.9593 51.7159 24.1781 51.88 24.4333C52.0623 24.6703 52.3266 24.9528 52.673 25.2809C52.2172 25.2627 51.7524 25.2536 51.2784 25.2536C50.8045 25.2536 50.367 25.2627 49.9659 25.2809C49.492 25.2992 49.0271 25.3174 48.5714 25.3356C48.1157 25.3539 47.5961 25.3812 47.0128 25.4177C46.5206 25.4541 45.9464 25.4997 45.2902 25.5544C44.6157 25.5908 43.8956 25.6455 43.13 25.7184C43.604 25.4997 44.005 25.2809 44.3331 25.0622C44.6613 24.8252 44.9347 24.6065 45.1534 24.4059C45.4086 24.1872 45.6274 23.9776 45.8097 23.777C45.9373 23.5947 46.1925 23.1755 46.5753 22.5192C46.9581 21.8447 47.3865 21.0518 47.8605 20.1403C48.3527 19.2289 48.8631 18.2536 49.3917 17.2145C49.9386 16.1755 50.4308 15.2002 50.8683 14.2888C51.3058 13.3591 51.6613 12.557 51.9347 11.8825C52.2081 11.208 52.3448 10.7705 52.3448 10.57C52.3084 10.333 52.2172 10.0687 52.0714 9.77704C51.9438 9.52183 51.7433 9.23016 51.4698 8.90204C51.2146 8.57391 50.8409 8.20933 50.3488 7.80829ZM58.8253 18.6091C58.7159 17.971 58.6157 17.4242 58.5245 16.9684C58.4334 16.4945 58.3605 16.1026 58.3058 15.7927C58.2329 15.4281 58.1782 15.1091 58.1417 14.8356C58.087 14.5804 58.0232 14.2523 57.9503 13.8513C57.8774 13.5049 57.7863 13.0765 57.6769 12.5661C57.5857 12.0375 57.4672 11.4085 57.3214 10.6794C56.2823 12.7575 55.4711 14.3708 54.8878 15.5192C54.3227 16.6494 53.9126 17.4789 53.6573 18.0075C53.3474 18.6273 53.1743 18.9919 53.1378 19.1013L58.8253 18.6091ZM60.4397 6.68719C61.661 6.74188 62.609 6.76923 63.2834 6.76923H64.2952C64.5868 6.76923 64.9514 6.76011 65.3889 6.74188C65.7535 6.72365 66.2183 6.71454 66.7834 6.71454C67.3485 6.69631 68.023 6.66897 68.8069 6.63251C68.4423 6.88772 68.1506 7.13381 67.9319 7.37079C67.7131 7.60777 67.5399 7.8174 67.4123 7.99969C67.2665 8.21844 67.1663 8.41897 67.1116 8.60126C66.984 9.07522 66.9293 9.72235 66.9475 10.5427C66.984 11.3447 67.066 12.2197 67.1936 13.1677C67.3212 14.0974 67.4761 15.0453 67.6584 16.0114C67.8407 16.9776 68.023 17.8526 68.2053 18.6364C68.4058 19.4203 68.579 20.0674 68.7248 20.5778C68.8889 21.07 69.0074 21.3161 69.0803 21.3161C69.1532 21.3161 69.2899 21.0518 69.4905 20.5231C69.7092 19.9945 69.9553 19.3291 70.2288 18.527C70.5022 17.7067 70.7847 16.8226 71.0764 15.8747C71.3681 14.9085 71.6324 13.9971 71.8694 13.1403C72.1246 12.2653 72.3342 11.5179 72.4983 10.8981C72.6623 10.2601 72.7444 9.86818 72.7444 9.72235C72.7261 9.52183 72.6623 9.31219 72.553 9.09344C72.4618 8.89292 72.2978 8.66506 72.0608 8.40985C71.842 8.13641 71.5321 7.82652 71.1311 7.48016C71.6962 7.46193 72.1793 7.44371 72.5803 7.42548C72.9996 7.40725 73.3551 7.39813 73.6467 7.39813H74.4944H78.8694C78.4136 7.70803 78.0217 8.00881 77.6936 8.30048C77.3837 8.59214 77.1285 8.86558 76.928 9.12079C76.691 9.41246 76.4905 9.68589 76.3264 9.9411C76.1441 10.3239 75.8433 11.1533 75.4241 12.4294C75.2418 12.9763 75.0321 13.6416 74.7952 14.4255C74.5582 15.2093 74.2756 16.1481 73.9475 17.2419C73.6194 18.3356 73.2548 19.6026 72.8538 21.0427C72.4527 22.4645 71.997 24.0869 71.4866 25.9099L67.6858 26.402C67.2301 24.9802 66.829 23.6859 66.4827 22.5192C66.1545 21.3343 65.8629 20.3226 65.6077 19.4841C65.316 18.4997 65.0699 17.6156 64.8694 16.8317C64.5959 15.8838 64.359 14.9268 64.1584 13.9606C63.9761 12.9763 63.8121 12.0921 63.6663 11.3083C63.5386 10.5062 63.4202 9.84084 63.3108 9.31219C63.2014 8.78355 63.0829 8.47365 62.9553 8.38251C62.8459 8.29136 62.6819 8.17287 62.4631 8.02704C62.2626 7.89943 62.0074 7.73537 61.6975 7.53485C61.3694 7.3161 60.9501 7.03355 60.4397 6.68719ZM75.6439 7.48016C76.2637 7.55308 76.7832 7.60777 77.2025 7.64423C77.64 7.66246 77.9955 7.6898 78.2689 7.72626C78.597 7.76272 78.8522 7.78094 79.0345 7.78094C79.2351 7.79917 79.5358 7.79006 79.9369 7.7536C80.2832 7.71714 80.7481 7.67157 81.3314 7.61688C81.933 7.56219 82.6986 7.48016 83.6283 7.37079C83.209 7.73537 82.8718 8.09084 82.6166 8.43719C82.3796 8.76532 82.1973 9.05699 82.0697 9.31219C81.9056 9.62209 81.8054 9.91376 81.7689 10.1872C81.696 10.6247 81.6322 11.2263 81.5775 11.9919C81.541 12.7393 81.5046 13.5596 81.4681 14.4528C81.4317 15.346 81.4134 16.2666 81.4134 17.2145C81.4134 18.1625 81.4226 19.0648 81.4408 19.9216C81.4772 20.7601 81.5319 21.5075 81.6048 22.1638C81.696 22.82 81.8054 23.294 81.933 23.5856C82.1153 23.9138 82.3067 24.2419 82.5072 24.57C82.6895 24.8434 82.9082 25.126 83.1634 25.4177C83.4186 25.7093 83.7103 25.9463 84.0384 26.1286C82.9629 26.0739 82.1061 26.0466 81.4681 26.0466H80.4837C80.1921 26.0466 79.8184 26.0648 79.3627 26.1013C78.9798 26.1377 78.4968 26.1742 77.9134 26.2106C77.3301 26.2471 76.6283 26.3018 75.808 26.3747C76.2272 25.919 76.5554 25.4815 76.7923 25.0622C77.0293 24.6429 77.2207 24.2783 77.3666 23.9684C77.5306 23.6039 77.64 23.2575 77.6947 22.9294C77.7676 22.4554 77.8223 21.8721 77.8587 21.1794C77.9134 20.4684 77.9499 19.7119 77.9681 18.9099C77.9864 18.0895 77.9864 17.2601 77.9681 16.4216C77.9681 15.5648 77.9499 14.7445 77.9134 13.9606C77.877 13.1768 77.8223 12.4658 77.7494 11.8278C77.6947 11.1898 77.6218 10.6794 77.5306 10.2966C77.4759 10.0596 77.3666 9.79527 77.2025 9.5036C77.0567 9.24839 76.8561 8.95673 76.6009 8.6286C76.364 8.28225 76.0449 7.89943 75.6439 7.48016ZM82.9184 6.93329C83.7388 7.07912 84.4132 7.17938 84.9419 7.23407C85.4705 7.28876 85.8989 7.33433 86.227 7.37079C86.6098 7.40725 86.9106 7.41636 87.1294 7.39813H87.9497C88.2414 7.39813 88.6059 7.39813 89.0434 7.39813C89.4992 7.3799 90.0643 7.37079 90.7388 7.37079C91.1216 8.26402 91.4679 9.08433 91.7778 9.83173C92.1059 10.5791 92.3794 11.2171 92.5981 11.7458C92.8533 12.3838 93.0903 12.958 93.3091 13.4684C93.5643 14.1065 93.8377 14.8083 94.1294 15.5739C94.421 16.3395 94.6854 17.0596 94.9223 17.7341C95.1776 18.4085 95.3872 18.9645 95.5513 19.402C95.7153 19.8395 95.7973 20.0401 95.7973 20.0036C95.7973 19.9854 95.8065 19.8031 95.8247 19.4567C95.8429 19.0921 95.8611 18.6455 95.8794 18.1169C95.8976 17.57 95.9158 16.9776 95.9341 16.3395C95.9705 15.6833 95.9888 15.0544 95.9888 14.4528C96.007 13.833 96.0161 13.2679 96.0161 12.7575C96.0161 12.2471 95.9979 11.8643 95.9614 11.6091C95.9067 11.2992 95.7973 10.9437 95.6333 10.5427C95.4874 10.1963 95.2869 9.78615 95.0317 9.31219C94.7765 8.82001 94.421 8.26402 93.9653 7.64423C94.7127 7.66246 95.3234 7.67157 95.7973 7.67157C96.2713 7.67157 96.6541 7.67157 96.9458 7.67157C97.2739 7.67157 97.5291 7.66246 97.7114 7.64423C97.9484 7.64423 98.2401 7.626 98.5864 7.58954C98.8963 7.55308 99.2791 7.52574 99.7348 7.50751C100.209 7.47105 100.792 7.42548 101.485 7.37079C101.084 7.73537 100.765 8.08173 100.528 8.40985C100.291 8.73798 100.099 9.02964 99.9536 9.28485C99.7895 9.57652 99.6802 9.84996 99.6255 10.1052C99.5526 10.4333 99.4888 10.971 99.4341 11.7184C99.3976 12.4476 99.352 13.2679 99.2973 14.1794C99.2609 15.0908 99.2244 16.0388 99.188 17.0231C99.1515 18.0075 99.1151 18.9099 99.0786 19.7302C99.0786 20.35 99.0604 21.0153 99.0239 21.7263C98.9874 22.3278 98.951 23.0114 98.9145 23.777C98.8781 24.5244 98.8325 25.2809 98.7778 26.0466L96.3442 26.1013C95.6333 24.8434 95.0317 23.7679 94.5395 22.8747C94.0656 21.9632 93.6736 21.2158 93.3638 20.6325C93.0174 19.958 92.7257 19.3929 92.4888 18.9372C92.2882 18.4997 92.0239 17.9984 91.6958 17.4333C91.4223 16.9593 91.076 16.376 90.6567 15.6833C90.2557 14.9906 89.7726 14.1976 89.2075 13.3044C89.1528 14.5622 89.1255 15.6377 89.1255 16.5309C89.1437 17.4059 89.171 18.1351 89.2075 18.7184C89.2622 19.3929 89.326 19.958 89.3989 20.4138C89.4901 20.8513 89.6177 21.3434 89.7817 21.8903C89.9276 22.3643 90.1007 22.9203 90.3013 23.5583C90.52 24.1963 90.7843 24.9164 91.0942 25.7184C90.0187 25.6638 89.2166 25.6364 88.688 25.6364H87.8677C87.6124 25.6364 87.2661 25.6638 86.8286 25.7184C86.464 25.7549 85.9627 25.8096 85.3247 25.8825C84.7049 25.9554 83.9302 26.0557 83.0005 26.1833C83.438 25.6546 83.7843 25.1716 84.0395 24.7341C84.313 24.2783 84.5226 23.8955 84.6684 23.5856C84.8507 23.221 84.9783 22.902 85.0513 22.6286C85.1059 22.3369 85.1424 21.8356 85.1606 21.1247C85.1789 20.3955 85.1789 19.5752 85.1606 18.6638C85.1606 17.7341 85.1424 16.7588 85.1059 15.738C85.0877 14.7171 85.0604 13.7692 85.0239 12.8942C84.9874 12.0192 84.9419 11.2718 84.8872 10.652C84.8507 10.0322 84.8234 9.64943 84.8052 9.5036C84.7505 9.26662 84.6411 9.01141 84.477 8.73798C84.3312 8.501 84.1398 8.23667 83.9028 7.94501C83.6658 7.63511 83.3377 7.29787 82.9184 6.93329ZM103.838 7.80829C104.749 7.86298 105.515 7.90855 106.134 7.94501C106.772 7.96324 107.301 7.98147 107.72 7.99969C108.194 8.01792 108.595 8.01792 108.923 7.99969C109.252 7.98147 109.698 7.93589 110.263 7.86298C110.737 7.80829 111.366 7.72626 112.15 7.61688C112.952 7.48928 113.946 7.32522 115.13 7.12469C114.711 7.54397 114.383 7.92678 114.146 8.27313C113.927 8.60126 113.754 8.88381 113.627 9.12079C113.481 9.41246 113.38 9.65855 113.326 9.85907C113.289 10.0414 113.326 10.4971 113.435 11.2263C113.545 11.9554 113.699 12.8213 113.9 13.8239C114.101 14.8083 114.319 15.8656 114.556 16.9958C114.793 18.1078 115.03 19.1559 115.267 20.1403C115.504 21.1065 115.714 21.9359 115.896 22.6286C116.097 23.3031 116.242 23.7041 116.334 23.8317C116.607 24.2145 116.78 24.4697 116.853 24.5974C116.926 24.7067 117.054 24.807 117.236 24.8981C117.309 24.9346 117.427 24.9893 117.591 25.0622C117.737 25.1351 117.929 25.2263 118.166 25.3356C118.421 25.445 118.74 25.5726 119.123 25.7184C118.412 25.7549 117.801 25.7822 117.291 25.8005C116.78 25.8005 116.361 25.8096 116.033 25.8278C115.65 25.846 115.322 25.8643 115.048 25.8825C114.775 25.8825 114.447 25.9007 114.064 25.9372C113.736 25.9737 113.308 26.0101 112.779 26.0466C112.268 26.083 111.667 26.1195 110.974 26.1559C111.339 25.9007 111.63 25.6729 111.849 25.4724C112.086 25.2536 112.268 25.0713 112.396 24.9255C112.542 24.7432 112.642 24.5791 112.697 24.4333C112.733 24.2692 112.761 24.0231 112.779 23.695C112.797 23.4033 112.797 23.0205 112.779 22.5466C112.761 22.0544 112.715 21.4164 112.642 20.6325L105.451 21.3708C105.268 21.6807 105.132 21.9541 105.041 22.1911C104.949 22.4099 104.886 22.6013 104.849 22.7653C104.795 22.9658 104.776 23.1299 104.795 23.2575C104.831 23.4033 104.895 23.5765 104.986 23.777C105.077 23.9593 105.205 24.1781 105.369 24.4333C105.551 24.6703 105.815 24.9528 106.162 25.2809C105.706 25.2627 105.241 25.2536 104.767 25.2536C104.293 25.2536 103.856 25.2627 103.455 25.2809C102.981 25.2992 102.516 25.3174 102.06 25.3356C101.604 25.3539 101.085 25.3812 100.502 25.4177C100.009 25.4541 99.4352 25.4997 98.7789 25.5544C98.1044 25.5908 97.3844 25.6455 96.6188 25.7184C97.0927 25.4997 97.4938 25.2809 97.8219 25.0622C98.15 24.8252 98.4234 24.6065 98.6422 24.4059C98.8974 24.1872 99.1161 23.9776 99.2984 23.777C99.426 23.5947 99.6813 23.1755 100.064 22.5192C100.447 21.8447 100.875 21.0518 101.349 20.1403C101.841 19.2289 102.352 18.2536 102.88 17.2145C103.427 16.1755 103.92 15.2002 104.357 14.2888C104.795 13.3591 105.15 12.557 105.423 11.8825C105.697 11.208 105.834 10.7705 105.834 10.57C105.797 10.333 105.706 10.0687 105.56 9.77704C105.433 9.52183 105.232 9.23016 104.959 8.90204C104.703 8.57391 104.33 8.20933 103.838 7.80829ZM112.314 18.6091C112.205 17.971 112.104 17.4242 112.013 16.9684C111.922 16.4945 111.849 16.1026 111.795 15.7927C111.722 15.4281 111.667 15.1091 111.63 14.8356C111.576 14.5804 111.512 14.2523 111.439 13.8513C111.366 13.5049 111.275 13.0765 111.166 12.5661C111.074 12.0375 110.956 11.4085 110.81 10.6794C109.771 12.7575 108.96 14.3708 108.377 15.5192C107.811 16.6494 107.401 17.4789 107.146 18.0075C106.836 18.6273 106.663 18.9919 106.627 19.1013L112.314 18.6091ZM122.051 7.7536C122.853 7.79006 123.536 7.8174 124.101 7.83563C124.667 7.85386 125.131 7.87209 125.496 7.89032C125.933 7.90855 126.289 7.92678 126.562 7.94501C126.854 7.96324 127.219 7.97235 127.656 7.97235C128.403 7.97235 129.461 7.91766 130.828 7.80829C130.536 7.95412 130.308 8.11818 130.144 8.30048C129.98 8.46454 129.853 8.6286 129.762 8.79266C129.652 8.99318 129.57 9.18459 129.515 9.36688C129.479 9.58563 129.561 9.92287 129.762 10.3786C129.907 10.7614 130.172 11.2809 130.555 11.9372C130.937 12.5934 131.502 13.4411 132.25 14.4802C133.143 13.1677 133.836 12.1377 134.328 11.3903C134.82 10.6429 135.185 10.0778 135.422 9.69501C135.695 9.23928 135.859 8.9385 135.914 8.79266C135.896 8.70152 135.823 8.57391 135.695 8.40985C135.586 8.26402 135.403 8.09084 135.148 7.89032C134.911 7.67157 134.556 7.40725 134.082 7.09735C134.829 7.20673 135.449 7.28876 135.941 7.34344C136.452 7.39813 136.862 7.43459 137.172 7.45282C137.536 7.47105 137.837 7.47105 138.074 7.45282C138.311 7.43459 138.657 7.41636 139.113 7.39813C139.496 7.3799 140.006 7.36167 140.644 7.34344C141.301 7.32522 142.139 7.29787 143.16 7.26141C142.759 7.46193 142.413 7.65334 142.121 7.83563C141.829 8.01792 141.583 8.18199 141.383 8.32782C141.146 8.51011 140.936 8.66506 140.754 8.79266C140.535 9.01141 140.134 9.45803 139.551 10.1325C139.058 10.7158 138.357 11.5726 137.445 12.7028C136.534 13.8148 135.312 15.3278 133.781 17.2419C135.021 18.5544 136.023 19.5934 136.789 20.3591C137.555 21.1247 138.156 21.708 138.594 22.1091C139.104 22.583 139.478 22.902 139.715 23.0661C139.933 23.1937 140.234 23.3578 140.617 23.5583C140.945 23.7406 141.374 23.9684 141.902 24.2419C142.431 24.4971 143.105 24.807 143.926 25.1716H139.359C138.976 25.1716 138.512 25.1898 137.965 25.2263C137.491 25.2627 136.907 25.2992 136.215 25.3356C135.522 25.3721 134.711 25.4359 133.781 25.527C134.109 25.3265 134.346 25.1351 134.492 24.9528C134.656 24.7523 134.765 24.5791 134.82 24.4333C134.893 24.2692 134.902 24.1234 134.848 23.9958C134.756 23.8135 134.601 23.5401 134.383 23.1755C134.182 22.8656 133.9 22.4281 133.535 21.863C133.17 21.2979 132.669 20.5505 132.031 19.6208C131.302 20.4046 130.737 21.0609 130.336 21.5895C129.953 22.1 129.661 22.5101 129.461 22.82C129.242 23.1846 129.096 23.4763 129.023 23.695C129.023 23.8955 129.069 24.096 129.16 24.2966C129.251 24.4789 129.397 24.6794 129.598 24.8981C129.816 25.1169 130.135 25.3265 130.555 25.527L122.461 25.8825C123.117 25.4268 123.664 25.0166 124.101 24.652C124.539 24.2692 124.894 23.9502 125.168 23.695C125.478 23.3851 125.724 23.1117 125.906 22.8747C126.088 22.6013 126.371 22.2002 126.754 21.6716C127.064 21.2158 127.492 20.6052 128.039 19.8395C128.604 19.0739 129.324 18.0895 130.199 16.8864C129.233 15.3369 128.449 14.1065 127.848 13.195C127.264 12.2835 126.79 11.5817 126.426 11.0895C126.006 10.5244 125.696 10.1325 125.496 9.91376C125.314 9.74969 125.058 9.5674 124.73 9.36688C124.457 9.18459 124.101 8.96584 123.664 8.71063C123.226 8.43719 122.689 8.11818 122.051 7.7536ZM147.018 6.71454C147.601 6.73277 148.111 6.74188 148.549 6.74188C148.986 6.72365 149.342 6.71454 149.615 6.71454H150.408C150.609 6.69631 150.855 6.68719 151.147 6.68719C151.402 6.68719 151.712 6.68719 152.076 6.68719C152.441 6.68719 152.86 6.69631 153.334 6.71454C153.48 7.22496 153.644 7.72626 153.826 8.21844C154.027 8.6924 154.2 9.12079 154.346 9.5036C154.528 9.95933 154.71 10.3877 154.893 10.7888C155.075 11.1898 155.294 11.6729 155.549 12.238C155.768 12.7119 156.032 13.2953 156.342 13.988C156.652 14.6625 157.016 15.4372 157.436 16.3122C157.636 15.7471 157.818 15.2276 157.982 14.7536C158.165 14.2796 158.32 13.8695 158.447 13.5231C158.593 13.1221 158.712 12.7575 158.803 12.4294C158.894 12.1013 158.994 11.7002 159.104 11.2263C159.195 10.8252 159.295 10.3421 159.404 9.77704C159.532 9.21193 159.66 8.55568 159.787 7.80829C160.316 7.80829 160.79 7.80829 161.209 7.80829C161.628 7.80829 161.993 7.79917 162.303 7.78094C162.649 7.78094 162.959 7.77183 163.232 7.7536C163.524 7.7536 163.916 7.73537 164.408 7.69891C164.828 7.66246 165.384 7.63511 166.076 7.61688C166.787 7.58042 167.662 7.53485 168.701 7.48016C168.318 7.7536 168.009 8.02704 167.772 8.30048C167.553 8.55568 167.38 8.78355 167.252 8.98407C167.106 9.22105 167.015 9.44891 166.979 9.66766C166.942 9.84996 166.906 10.2692 166.869 10.9255C166.851 11.5817 166.824 12.3656 166.787 13.277C166.769 14.1703 166.751 15.1273 166.732 16.1481C166.732 17.169 166.742 18.1351 166.76 19.0466C166.778 19.958 166.805 20.751 166.842 21.4255C166.897 22.0817 166.969 22.501 167.061 22.6833C167.188 22.902 167.361 23.1572 167.58 23.4489C167.781 23.7041 168.036 23.9958 168.346 24.3239C168.674 24.652 169.102 25.0166 169.631 25.4177C168.792 25.4541 168.091 25.4815 167.525 25.4997C166.979 25.5179 166.523 25.5362 166.158 25.5544C165.739 25.5726 165.402 25.5817 165.147 25.5817C164.873 25.5817 164.499 25.5908 164.025 25.6091C163.606 25.6273 163.05 25.6546 162.357 25.6911C161.665 25.7093 160.772 25.7458 159.678 25.8005C159.933 25.5088 160.17 25.2171 160.389 24.9255C160.607 24.6338 160.79 24.3695 160.936 24.1325C161.118 23.8591 161.273 23.5947 161.4 23.3395C161.528 22.9932 161.628 22.3643 161.701 21.4528C161.774 20.669 161.829 19.5479 161.865 18.0895C161.902 16.613 161.902 14.6351 161.865 12.1559C161.519 12.721 161.209 13.2862 160.936 13.8513C160.68 14.3981 160.453 14.8994 160.252 15.3552C160.033 15.8838 159.833 16.3942 159.65 16.8864C159.468 17.3968 159.277 17.9619 159.076 18.5817C158.894 19.1104 158.675 19.7393 158.42 20.4684C158.183 21.1976 157.91 21.9997 157.6 22.8747L156.561 22.9294C156.415 22.2002 156.269 21.544 156.123 20.9606C155.977 20.3591 155.831 19.8487 155.686 19.4294C155.522 18.9372 155.357 18.4997 155.193 18.1169C155.011 17.7341 154.811 17.3057 154.592 16.8317C154.391 16.4307 154.145 15.9567 153.854 15.4099C153.58 14.863 153.261 14.2523 152.897 13.5778C152.714 15.4372 152.605 16.9502 152.568 18.1169C152.532 19.2653 152.532 20.1585 152.568 20.7966C152.605 21.5622 152.66 22.1182 152.732 22.4645C152.842 22.7744 153.015 23.1208 153.252 23.5036C153.453 23.8317 153.726 24.2237 154.072 24.6794C154.437 25.1169 154.902 25.6091 155.467 26.1559C155.066 26.1559 154.647 26.1559 154.209 26.1559C153.772 26.1559 153.371 26.1651 153.006 26.1833C152.568 26.2015 152.14 26.2106 151.721 26.2106C151.283 26.2289 150.773 26.2562 150.19 26.2927C149.679 26.3291 149.068 26.3656 148.357 26.402C147.647 26.4385 146.826 26.5023 145.897 26.5934C146.298 26.3382 146.626 26.0921 146.881 25.8552C147.136 25.6 147.337 25.3721 147.482 25.1716C147.665 24.9346 147.802 24.6976 147.893 24.4606C147.947 24.3148 147.993 23.9958 148.029 23.5036C148.084 23.0114 148.13 22.4099 148.166 21.6989C148.221 20.988 148.257 20.195 148.275 19.32C148.312 18.445 148.339 17.5609 148.357 16.6677C148.394 15.7562 148.421 14.8721 148.44 14.0153C148.458 13.1403 148.467 12.3565 148.467 11.6638C148.485 10.9528 148.494 10.3604 148.494 9.88641C148.494 9.41246 148.494 9.11167 148.494 8.98407C148.44 8.71063 148.357 8.43719 148.248 8.16376C148.157 7.92678 148.011 7.68068 147.811 7.42548C147.61 7.17027 147.346 6.93329 147.018 6.71454ZM172.53 7.80829C173.442 7.86298 174.208 7.90855 174.827 7.94501C175.465 7.96324 175.994 7.98147 176.413 7.99969C176.887 8.01792 177.288 8.01792 177.616 7.99969C177.945 7.98147 178.391 7.93589 178.956 7.86298C179.43 7.80829 180.059 7.72626 180.843 7.61688C181.645 7.48928 182.639 7.32522 183.823 7.12469C183.404 7.54397 183.076 7.92678 182.839 8.27313C182.62 8.60126 182.447 8.88381 182.32 9.12079C182.174 9.41246 182.073 9.65855 182.019 9.85907C181.982 10.0414 182.019 10.4971 182.128 11.2263C182.238 11.9554 182.392 12.8213 182.593 13.8239C182.793 14.8083 183.012 15.8656 183.249 16.9958C183.486 18.1078 183.723 19.1559 183.96 20.1403C184.197 21.1065 184.407 21.9359 184.589 22.6286C184.79 23.3031 184.935 23.7041 185.027 23.8317C185.3 24.2145 185.473 24.4697 185.546 24.5974C185.619 24.7067 185.747 24.807 185.929 24.8981C186.002 24.9346 186.12 24.9893 186.284 25.0622C186.43 25.1351 186.622 25.2263 186.859 25.3356C187.114 25.445 187.433 25.5726 187.816 25.7184C187.105 25.7549 186.494 25.7822 185.984 25.8005C185.473 25.8005 185.054 25.8096 184.726 25.8278C184.343 25.846 184.015 25.8643 183.741 25.8825C183.468 25.8825 183.14 25.9007 182.757 25.9372C182.429 25.9737 182.001 26.0101 181.472 26.0466C180.961 26.083 180.36 26.1195 179.667 26.1559C180.032 25.9007 180.323 25.6729 180.542 25.4724C180.779 25.2536 180.961 25.0713 181.089 24.9255C181.235 24.7432 181.335 24.5791 181.39 24.4333C181.426 24.2692 181.454 24.0231 181.472 23.695C181.49 23.4033 181.49 23.0205 181.472 22.5466C181.454 22.0544 181.408 21.4164 181.335 20.6325L174.144 21.3708C173.961 21.6807 173.825 21.9541 173.734 22.1911C173.642 22.4099 173.579 22.6013 173.542 22.7653C173.488 22.9658 173.469 23.1299 173.488 23.2575C173.524 23.4033 173.588 23.5765 173.679 23.777C173.77 23.9593 173.898 24.1781 174.062 24.4333C174.244 24.6703 174.508 24.9528 174.855 25.2809C174.399 25.2627 173.934 25.2536 173.46 25.2536C172.986 25.2536 172.549 25.2627 172.148 25.2809C171.674 25.2992 171.209 25.3174 170.753 25.3356C170.297 25.3539 169.778 25.3812 169.195 25.4177C168.702 25.4541 168.128 25.4997 167.472 25.5544C166.797 25.5908 166.077 25.6455 165.312 25.7184C165.786 25.4997 166.187 25.2809 166.515 25.0622C166.843 24.8252 167.116 24.6065 167.335 24.4059C167.59 24.1872 167.809 23.9776 167.991 23.777C168.119 23.5947 168.374 23.1755 168.757 22.5192C169.14 21.8447 169.568 21.0518 170.042 20.1403C170.534 19.2289 171.045 18.2536 171.573 17.2145C172.12 16.1755 172.613 15.2002 173.05 14.2888C173.488 13.3591 173.843 12.557 174.116 11.8825C174.39 11.208 174.527 10.7705 174.527 10.57C174.49 10.333 174.399 10.0687 174.253 9.77704C174.126 9.52183 173.925 9.23016 173.652 8.90204C173.396 8.57391 173.023 8.20933 172.53 7.80829ZM181.007 18.6091C180.898 17.971 180.797 17.4242 180.706 16.9684C180.615 16.4945 180.542 16.1026 180.488 15.7927C180.415 15.4281 180.36 15.1091 180.323 14.8356C180.269 14.5804 180.205 14.2523 180.132 13.8513C180.059 13.5049 179.968 13.0765 179.859 12.5661C179.767 12.0375 179.649 11.4085 179.503 10.6794C178.464 12.7575 177.653 14.3708 177.07 15.5192C176.504 16.6494 176.094 17.4789 175.839 18.0075C175.529 18.6273 175.356 18.9919 175.32 19.1013L181.007 18.6091ZM184.289 6.35907C184.873 6.45022 185.401 6.53225 185.875 6.60516C186.349 6.65985 186.759 6.70542 187.106 6.74188C187.507 6.79657 187.862 6.84214 188.172 6.8786C188.555 6.93329 189.129 6.86949 189.895 6.68719C190.66 6.48667 191.499 6.30438 192.41 6.14032C193.34 5.95803 194.288 5.85777 195.254 5.83954C196.22 5.80308 197.104 5.97626 197.907 6.35907C198.709 6.74188 199.365 7.12469 199.875 7.50751C200.386 7.89032 200.787 8.30048 201.078 8.73798C201.388 9.15725 201.607 9.60386 201.735 10.0778C201.862 10.5518 201.935 11.0713 201.953 11.6364C201.935 12.475 201.735 13.2862 201.352 14.07C201.188 14.3981 200.969 14.7445 200.696 15.1091C200.44 15.4554 200.121 15.7927 199.739 16.1208C199.356 16.4489 198.9 16.7588 198.371 17.0505C197.861 17.3421 197.259 17.5974 196.567 17.8161C197.241 18.0166 197.797 18.2536 198.235 18.527C198.69 18.8005 199.055 19.0557 199.328 19.2927C199.657 19.5843 199.903 19.8669 200.067 20.1403C200.267 20.5231 200.404 20.8513 200.477 21.1247C200.55 21.3981 200.595 21.6625 200.614 21.9177C200.65 22.1546 200.696 22.4007 200.75 22.6559C200.805 22.9112 200.923 23.2028 201.106 23.5309C201.252 23.7862 201.425 24.0505 201.625 24.3239C201.808 24.5609 202.017 24.8161 202.254 25.0895C202.509 25.363 202.819 25.6273 203.184 25.8825C202.673 25.9007 202.2 25.9099 201.762 25.9099C201.343 25.9099 200.978 25.9099 200.668 25.9099C200.304 25.9099 199.957 25.9007 199.629 25.8825C199.301 25.8643 198.891 25.8552 198.399 25.8552C197.979 25.8552 197.442 25.8552 196.785 25.8552C196.147 25.8552 195.373 25.8643 194.461 25.8825C194.862 25.5726 195.19 25.2627 195.446 24.9528C195.701 24.6429 195.901 24.3604 196.047 24.1052C196.211 23.8135 196.33 23.5309 196.403 23.2575C196.494 22.7653 196.503 22.2549 196.43 21.7263C196.375 21.2705 196.229 20.7692 195.992 20.2224C195.756 19.6572 195.373 19.0921 194.844 18.527C194.315 18.6182 193.869 18.6911 193.504 18.7458C193.158 18.7822 192.857 18.8187 192.602 18.8552C192.31 18.8916 192.073 18.919 191.891 18.9372C191.727 18.9554 191.545 18.9737 191.344 18.9919C191.18 19.0101 190.998 19.0375 190.797 19.0739C190.615 19.0921 190.442 19.1195 190.278 19.1559C190.241 19.9398 190.241 20.6234 190.278 21.2067C190.314 21.7718 190.36 22.2458 190.414 22.6286C190.487 23.0843 190.569 23.4763 190.66 23.8044C190.752 24.1325 190.879 24.4515 191.043 24.7614C191.171 25.0166 191.335 25.2901 191.535 25.5817C191.736 25.8552 191.964 26.083 192.219 26.2653C191.745 26.2653 191.289 26.2653 190.852 26.2653C190.433 26.2653 190.05 26.2562 189.703 26.238C189.302 26.238 188.92 26.2289 188.555 26.2106C188.19 26.1924 187.78 26.1833 187.325 26.1833C186.942 26.1833 186.486 26.1833 185.957 26.1833C185.447 26.1833 184.891 26.1924 184.289 26.2106C184.763 25.7184 185.137 25.2992 185.41 24.9528C185.684 24.6065 185.894 24.3148 186.039 24.0778C186.203 23.8226 186.304 23.6039 186.34 23.4216C186.377 23.1299 186.404 22.6104 186.422 21.863C186.459 21.0974 186.486 20.2224 186.504 19.238C186.522 18.2536 186.532 17.2237 186.532 16.1481C186.532 15.0726 186.522 14.07 186.504 13.1403C186.486 12.1924 186.468 11.3812 186.45 10.7067C186.431 10.0322 186.413 9.60386 186.395 9.42157C186.34 9.09344 186.222 8.76532 186.039 8.43719C185.894 8.14553 185.684 7.8174 185.41 7.45282C185.137 7.08824 184.763 6.72365 184.289 6.35907ZM194.625 15.9841C194.808 15.8747 194.963 15.7653 195.09 15.6559C195.218 15.5466 195.327 15.3734 195.418 15.1364C195.509 14.8812 195.582 14.5257 195.637 14.07C195.71 13.6143 195.792 12.9945 195.883 12.2106C195.956 11.4268 195.901 10.7796 195.719 10.2692C195.555 9.75881 195.327 9.35777 195.035 9.0661C194.762 8.75621 194.452 8.54657 194.106 8.43719C193.778 8.30959 193.486 8.24579 193.231 8.24579C192.72 8.24579 192.219 8.40074 191.727 8.71063C191.235 9.02053 190.861 9.4398 190.606 9.96844C190.515 10.2054 190.433 10.5974 190.36 11.1442C190.305 11.6182 190.269 12.2744 190.25 13.113C190.232 13.9515 190.259 15.0544 190.332 16.4216C191.025 16.5309 191.636 16.5765 192.164 16.5583C192.693 16.5218 193.14 16.458 193.504 16.3669C193.942 16.2757 194.315 16.1481 194.625 15.9841ZM201.79 7.48016C202.41 7.55308 202.93 7.60777 203.349 7.64423C203.787 7.66246 204.142 7.6898 204.415 7.72626C204.744 7.76272 204.999 7.78094 205.181 7.78094C205.382 7.79917 205.682 7.79006 206.083 7.7536C206.43 7.71714 206.895 7.67157 207.478 7.61688C208.08 7.56219 208.845 7.48016 209.775 7.37079C209.356 7.73537 209.018 8.09084 208.763 8.43719C208.526 8.76532 208.344 9.05699 208.216 9.31219C208.052 9.62209 207.952 9.91376 207.915 10.1872C207.843 10.6247 207.779 11.2263 207.724 11.9919C207.688 12.7393 207.651 13.5596 207.615 14.4528C207.578 15.346 207.56 16.2666 207.56 17.2145C207.56 18.1625 207.569 19.0648 207.587 19.9216C207.624 20.7601 207.678 21.5075 207.751 22.1638C207.843 22.82 207.952 23.294 208.08 23.5856C208.262 23.9138 208.453 24.2419 208.654 24.57C208.836 24.8434 209.055 25.126 209.31 25.4177C209.565 25.7093 209.857 25.9463 210.185 26.1286C209.109 26.0739 208.253 26.0466 207.615 26.0466H206.63C206.339 26.0466 205.965 26.0648 205.509 26.1013C205.126 26.1377 204.643 26.1742 204.06 26.2106C203.477 26.2471 202.775 26.3018 201.955 26.3747C202.374 25.919 202.702 25.4815 202.939 25.0622C203.176 24.6429 203.367 24.2783 203.513 23.9684C203.677 23.6039 203.787 23.2575 203.841 22.9294C203.914 22.4554 203.969 21.8721 204.005 21.1794C204.06 20.4684 204.096 19.7119 204.115 18.9099C204.133 18.0895 204.133 17.2601 204.115 16.4216C204.115 15.5648 204.096 14.7445 204.06 13.9606C204.024 13.1768 203.969 12.4658 203.896 11.8278C203.841 11.1898 203.768 10.6794 203.677 10.2966C203.622 10.0596 203.513 9.79527 203.349 9.5036C203.203 9.24839 203.003 8.95673 202.747 8.6286C202.511 8.28225 202.192 7.89943 201.79 7.48016ZM226.92 6.30438C226.665 6.88772 226.437 7.39813 226.237 7.83563C226.036 8.27313 225.863 8.64683 225.717 8.95673C225.553 9.30308 225.417 9.61298 225.307 9.88641C225.216 10.0869 225.098 10.3604 224.952 10.7067C224.806 11.0166 224.624 11.4268 224.405 11.9372C224.204 12.4294 223.94 13.0674 223.612 13.8513C223.448 13.1768 223.247 12.5843 223.01 12.0739C222.773 11.5635 222.518 11.1169 222.245 10.7341C221.971 10.3513 221.68 10.0414 221.37 9.80438C221.078 9.54917 220.786 9.33954 220.495 9.17548C219.82 8.81089 219.109 8.61037 218.362 8.57391C217.378 8.6286 216.603 8.79266 216.038 9.0661C215.491 9.32131 215.09 9.62209 214.835 9.96844C214.579 10.2966 214.443 10.6429 214.424 11.0075C214.406 11.3539 214.452 11.6455 214.561 11.8825C214.652 12.1013 214.971 12.3565 215.518 12.6481C216.083 12.9398 216.758 13.277 217.542 13.6599C218.344 14.0244 219.2 14.4437 220.112 14.9177C221.023 15.3734 221.862 15.8838 222.628 16.4489C223.411 16.9958 224.068 17.5974 224.596 18.2536C225.143 18.8916 225.444 19.5752 225.499 20.3044C225.553 21.2341 225.544 22.0726 225.471 22.82C225.398 23.5674 225.143 24.2054 224.706 24.7341C224.268 25.2627 223.585 25.682 222.655 25.9919C221.743 26.3018 220.476 26.4932 218.854 26.5661C217.177 26.639 215.801 26.5479 214.725 26.2927C213.65 26.0375 212.775 25.6911 212.1 25.2536C211.444 24.8161 210.952 24.333 210.624 23.8044C210.314 23.2757 210.086 22.7744 209.94 22.3005C209.794 21.8083 209.694 21.389 209.639 21.0427C209.585 20.6781 209.493 20.4593 209.366 20.3864C209.22 20.2953 209.074 20.2132 208.928 20.1403C208.801 20.0674 208.664 20.0036 208.518 19.9489C208.372 19.876 208.226 19.8122 208.081 19.7575L216.038 18.4724C215.582 18.8369 215.226 19.1742 214.971 19.4841C214.734 19.794 214.552 20.0674 214.424 20.3044C214.279 20.5778 214.178 20.833 214.124 21.07C214.087 21.3252 214.169 21.6442 214.37 22.027C214.57 22.4099 214.844 22.7835 215.19 23.1481C215.555 23.4945 215.974 23.7862 216.448 24.0231C216.922 24.2601 217.414 24.3604 217.924 24.3239C218.562 24.2692 219.082 24.1143 219.483 23.8591C219.884 23.5856 220.185 23.2484 220.385 22.8474C220.604 22.4463 220.732 22.0088 220.768 21.5349C220.805 21.0609 220.759 20.596 220.631 20.1403C220.522 19.6664 220.34 19.2289 220.085 18.8278C219.829 18.4085 219.529 18.0622 219.182 17.7888C218.872 17.57 218.389 17.3604 217.733 17.1599C217.095 16.9593 216.375 16.7406 215.573 16.5036C214.789 16.2666 213.978 15.9932 213.139 15.6833C212.319 15.3734 211.572 14.9906 210.897 14.5349C210.241 14.0791 209.712 13.5414 209.311 12.9216C208.928 12.3018 208.782 11.5544 208.874 10.6794C208.947 9.93199 209.183 9.31219 209.585 8.82001C210.004 8.30959 210.523 7.90855 211.143 7.61688C211.781 7.30699 212.483 7.07912 213.249 6.93329C214.032 6.78746 214.825 6.70542 215.628 6.68719C216.448 6.65074 217.25 6.65985 218.034 6.71454C218.836 6.76923 219.556 6.83303 220.194 6.90594C220.832 6.97886 221.37 7.05178 221.807 7.12469C222.263 7.17938 222.545 7.21584 222.655 7.23407C223.129 7.27053 223.603 7.26141 224.077 7.20673C224.496 7.17027 224.952 7.08824 225.444 6.96063C225.954 6.8148 226.447 6.59605 226.92 6.30438ZM243.383 6.30438C243.127 6.88772 242.899 7.39813 242.699 7.83563C242.498 8.27313 242.325 8.64683 242.179 8.95673C242.015 9.30308 241.879 9.61298 241.769 9.88641C241.678 10.0869 241.56 10.3604 241.414 10.7067C241.268 11.0166 241.086 11.4268 240.867 11.9372C240.666 12.4294 240.402 13.0674 240.074 13.8513C239.91 13.1768 239.709 12.5843 239.472 12.0739C239.235 11.5635 238.98 11.1169 238.707 10.7341C238.433 10.3513 238.142 10.0414 237.832 9.80438C237.54 9.54917 237.248 9.33954 236.957 9.17548C236.282 8.81089 235.571 8.61037 234.824 8.57391C233.84 8.6286 233.065 8.79266 232.5 9.0661C231.953 9.32131 231.552 9.62209 231.297 9.96844C231.041 10.2966 230.905 10.6429 230.886 11.0075C230.868 11.3539 230.914 11.6455 231.023 11.8825C231.114 12.1013 231.433 12.3565 231.98 12.6481C232.545 12.9398 233.22 13.277 234.004 13.6599C234.806 14.0244 235.662 14.4437 236.574 14.9177C237.485 15.3734 238.324 15.8838 239.09 16.4489C239.873 16.9958 240.53 17.5974 241.058 18.2536C241.605 18.8916 241.906 19.5752 241.961 20.3044C242.015 21.2341 242.006 22.0726 241.933 22.82C241.86 23.5674 241.605 24.2054 241.168 24.7341C240.73 25.2627 240.047 25.682 239.117 25.9919C238.205 26.3018 236.938 26.4932 235.316 26.5661C233.639 26.639 232.263 26.5479 231.187 26.2927C230.112 26.0375 229.237 25.6911 228.562 25.2536C227.906 24.8161 227.414 24.333 227.086 23.8044C226.776 23.2757 226.548 22.7744 226.402 22.3005C226.256 21.8083 226.156 21.389 226.101 21.0427C226.047 20.6781 225.955 20.4593 225.828 20.3864C225.682 20.2953 225.536 20.2132 225.39 20.1403C225.263 20.0674 225.126 20.0036 224.98 19.9489C224.834 19.876 224.688 19.8122 224.543 19.7575L232.5 18.4724C232.044 18.8369 231.688 19.1742 231.433 19.4841C231.196 19.794 231.014 20.0674 230.886 20.3044C230.741 20.5778 230.64 20.833 230.586 21.07C230.549 21.3252 230.631 21.6442 230.832 22.027C231.032 22.4099 231.306 22.7835 231.652 23.1481C232.017 23.4945 232.436 23.7862 232.91 24.0231C233.384 24.2601 233.876 24.3604 234.386 24.3239C235.024 24.2692 235.544 24.1143 235.945 23.8591C236.346 23.5856 236.647 23.2484 236.847 22.8474C237.066 22.4463 237.194 22.0088 237.23 21.5349C237.267 21.0609 237.221 20.596 237.093 20.1403C236.984 19.6664 236.802 19.2289 236.547 18.8278C236.291 18.4085 235.991 18.0622 235.644 17.7888C235.334 17.57 234.851 17.3604 234.195 17.1599C233.557 16.9593 232.837 16.7406 232.035 16.5036C231.251 16.2666 230.44 15.9932 229.601 15.6833C228.781 15.3734 228.034 14.9906 227.359 14.5349C226.703 14.0791 226.174 13.5414 225.773 12.9216C225.39 12.3018 225.244 11.5544 225.336 10.6794C225.409 9.93199 225.646 9.31219 226.047 8.82001C226.466 8.30959 226.985 7.90855 227.605 7.61688C228.243 7.30699 228.945 7.07912 229.711 6.93329C230.494 6.78746 231.287 6.70542 232.09 6.68719C232.91 6.65074 233.712 6.65985 234.496 6.71454C235.298 6.76923 236.018 6.83303 236.656 6.90594C237.294 6.97886 237.832 7.05178 238.269 7.12469C238.725 7.17938 239.008 7.21584 239.117 7.23407C239.591 7.27053 240.065 7.26141 240.539 7.20673C240.958 7.17027 241.414 7.08824 241.906 6.96063C242.416 6.8148 242.909 6.59605 243.383 6.30438ZM245.161 7.80829C246.072 7.86298 246.838 7.90855 247.458 7.94501C248.096 7.96324 248.624 7.98147 249.044 7.99969C249.518 8.01792 249.919 8.01792 250.247 7.99969C250.575 7.98147 251.022 7.93589 251.587 7.86298C252.061 7.80829 252.69 7.72626 253.473 7.61688C254.276 7.48928 255.269 7.32522 256.454 7.12469C256.035 7.54397 255.707 7.92678 255.47 8.27313C255.251 8.60126 255.078 8.88381 254.95 9.12079C254.804 9.41246 254.704 9.65855 254.649 9.85907C254.613 10.0414 254.649 10.4971 254.759 11.2263C254.868 11.9554 255.023 12.8213 255.223 13.8239C255.424 14.8083 255.643 15.8656 255.88 16.9958C256.117 18.1078 256.354 19.1559 256.591 20.1403C256.828 21.1065 257.037 21.9359 257.22 22.6286C257.42 23.3031 257.566 23.7041 257.657 23.8317C257.93 24.2145 258.104 24.4697 258.177 24.5974C258.249 24.7067 258.377 24.807 258.559 24.8981C258.632 24.9346 258.751 24.9893 258.915 25.0622C259.061 25.1351 259.252 25.2263 259.489 25.3356C259.744 25.445 260.063 25.5726 260.446 25.7184C259.735 25.7549 259.124 25.7822 258.614 25.8005C258.104 25.8005 257.684 25.8096 257.356 25.8278C256.973 25.846 256.645 25.8643 256.372 25.8825C256.098 25.8825 255.77 25.9007 255.387 25.9372C255.059 25.9737 254.631 26.0101 254.102 26.0466C253.592 26.083 252.99 26.1195 252.298 26.1559C252.662 25.9007 252.954 25.6729 253.173 25.4724C253.41 25.2536 253.592 25.0713 253.72 24.9255C253.865 24.7432 253.966 24.5791 254.02 24.4333C254.057 24.2692 254.084 24.0231 254.102 23.695C254.121 23.4033 254.121 23.0205 254.102 22.5466C254.084 22.0544 254.039 21.4164 253.966 20.6325L246.774 21.3708C246.592 21.6807 246.455 21.9541 246.364 22.1911C246.273 22.4099 246.209 22.6013 246.173 22.7653C246.118 22.9658 246.1 23.1299 246.118 23.2575C246.154 23.4033 246.218 23.5765 246.309 23.777C246.401 23.9593 246.528 24.1781 246.692 24.4333C246.874 24.6703 247.139 24.9528 247.485 25.2809C247.029 25.2627 246.565 25.2536 246.091 25.2536C245.617 25.2536 245.179 25.2627 244.778 25.2809C244.304 25.2992 243.839 25.3174 243.384 25.3356C242.928 25.3539 242.408 25.3812 241.825 25.4177C241.333 25.4541 240.759 25.4997 240.102 25.5544C239.428 25.5908 238.708 25.6455 237.942 25.7184C238.416 25.4997 238.817 25.2809 239.145 25.0622C239.473 24.8252 239.747 24.6065 239.966 24.4059C240.221 24.1872 240.44 23.9776 240.622 23.777C240.749 23.5947 241.005 23.1755 241.387 22.5192C241.77 21.8447 242.199 21.0518 242.673 20.1403C243.165 19.2289 243.675 18.2536 244.204 17.2145C244.751 16.1755 245.243 15.2002 245.68 14.2888C246.118 13.3591 246.473 12.557 246.747 11.8825C247.02 11.208 247.157 10.7705 247.157 10.57C247.121 10.333 247.029 10.0687 246.884 9.77704C246.756 9.52183 246.555 9.23016 246.282 8.90204C246.027 8.57391 245.653 8.20933 245.161 7.80829ZM253.637 18.6091C253.528 17.971 253.428 17.4242 253.337 16.9684C253.246 16.4945 253.173 16.1026 253.118 15.7927C253.045 15.4281 252.99 15.1091 252.954 14.8356C252.899 14.5804 252.835 14.2523 252.762 13.8513C252.69 13.5049 252.598 13.0765 252.489 12.5661C252.398 12.0375 252.279 11.4085 252.134 10.6794C251.095 12.7575 250.283 14.3708 249.7 15.5192C249.135 16.6494 248.725 17.4789 248.47 18.0075C248.16 18.6273 247.986 18.9919 247.95 19.1013L253.637 18.6091Z" fill="white"/>
<defs>
<clipPath id="clip0_8_655">
<rect width="28" height="28" fill="white" transform="translate(0 2.32001)"/>
</clipPath>
</defs>
</svg>
